*
G04 Job   : F:\FRHA\RemoteDimmer\PCB\RemoteDimmerPic\PCB\REMOTEDIMMERPIC.PCB*
G04 User  : PC-FRHA:frha*
G04 Layer : BottomPlace.gdo*
G04 Date  : Wed May 09 14:36:28 2001*
%ICAS*%
%MOIN*%
%FSLAX24Y24*%
%OFA0.0000B0.0000*%
G90*
%ADD11C,0.0050*%
%ADD10C,0.0080*%
G01*
G54D10*
X30250D01*
Y20500*
X0*
Y0*
X1550Y14800D02*
Y15150D01*
Y15200*
X1700*
X1600Y11200D02*
X2400D01*
X1600Y12800D02*
Y11200D01*
X1700Y13700D02*
Y16300D01*
Y14800D02*
X1550D01*
X1700Y16300D02*
X4000D01*
X1809Y11728D02*
X1866Y11656D01*
X1809Y11728*
Y11870D02*
Y11728D01*
Y11870*
Y12056D02*
Y12342D01*
Y12056*
X1866Y11656D02*
X2151D01*
X1866*
Y11942D02*
X1809Y11870D01*
X1866Y11942*
Y12056D02*
X1809D01*
X1866*
X2059Y6656D02*
X2459D01*
X2059*
Y6870D02*
Y6656D01*
Y6870*
Y7129D02*
Y7271D01*
Y7129*
Y7271D02*
X2116Y7342D01*
X2059Y7271*
X2094Y12342D02*
X1866Y12056D01*
X2094Y12342*
X2151*
X2094*
X2116Y6942D02*
X2059Y6870D01*
X2116Y6942*
Y7057D02*
X2059Y7129D01*
X2116Y7057*
Y7342D02*
X2258D01*
X2116*
Y6942D02*
X2402D01*
X2116*
X2152Y11656D02*
X2209Y11728D01*
X2152Y11656*
Y12056D02*
X2209Y12128D01*
X2152Y12056*
X2209Y11728D02*
Y11870D01*
Y11728*
Y11870D02*
X2152Y11942D01*
X2209Y11870*
Y12128D02*
Y12270D01*
Y12128*
Y12270D02*
X2152Y12342D01*
X2209Y12270*
X2258Y7057D02*
X2316Y7129D01*
X2258Y7057*
Y7342D02*
X2316Y7271D01*
X2258Y7342*
X2316Y7129D02*
Y7271D01*
Y7129*
X2400Y11200D02*
Y12800D01*
X1600*
X2459Y6656D02*
Y6870D01*
Y6656*
Y6870D02*
X2401Y6942D01*
X2459Y6870*
Y7057D02*
X2258D01*
X2459*
Y7342*
Y7057*
X2461Y10905D02*
X5161D01*
X2461Y12405D02*
Y10905D01*
X2573Y14820D02*
X2662Y14749D01*
X2573Y14820*
Y15035D02*
X2662Y14963D01*
X2573Y15035*
Y15177D02*
Y14820D01*
Y15177*
X2662Y14749D02*
X2840D01*
X2662*
Y14963D02*
X2840D01*
X2662*
Y15249D02*
X2573Y15177D01*
X2662Y15249*
X2700Y6270D02*
X3300D01*
X2700D02*
Y7730D01*
Y6470D02*
X3300D01*
X2700Y6800D02*
X3300D01*
X2700Y7530D02*
X3300D01*
X2700Y7730D02*
X3300D01*
X2711Y12405D02*
Y13105D01*
X3111*
X2840Y14749D02*
X2930Y14820D01*
X2840Y14749*
Y14963D02*
X2930Y15035D01*
X2840Y14963*
Y15249D02*
X2662D01*
X2840*
X2930Y15035D02*
Y15177D01*
Y15035*
Y15178D02*
X2840Y15249D01*
X2930Y15178*
X3073Y14820D02*
X3162Y14749D01*
X3073Y14820*
X3111Y12405D02*
Y13105D01*
X3162Y14749D02*
X3340D01*
X3162*
Y15249D02*
X3073Y15178D01*
X3162Y15249*
X3211Y10205D02*
X4411D01*
X3211D02*
Y10905D01*
X3300Y6270D02*
Y7730D01*
X3340Y14749D02*
X3430Y14820D01*
X3340Y14749*
Y15249D02*
X3162D01*
X3340*
X3383Y11761D02*
X3740Y11475D01*
X3383Y11761*
Y11832*
Y11761*
X3430Y14820D02*
Y15177D01*
Y14820*
Y15178D02*
X3340Y15249D01*
X3430Y15178*
X3472Y11904D02*
X3383Y11833D01*
X3472Y11904*
X3611Y12405D02*
Y13105D01*
X4011*
X3650Y11904D02*
X3472D01*
X3650*
X3740Y11404D02*
X3383D01*
X3740*
Y11475D02*
Y11404D01*
Y11475*
Y11833D02*
X3650Y11904D01*
X3740Y11833*
X3884Y11475D02*
X3973Y11404D01*
X3884Y11475*
Y11476D02*
Y11904D01*
Y11476*
X3973Y11404D02*
X4151D01*
X3973*
X4000Y13700D02*
X1700D01*
X4000Y16300D02*
X4300Y16000D01*
X4011Y12405D02*
Y13105D01*
X4059Y6656D02*
X4459D01*
X4059*
Y6870D02*
Y6656D01*
Y6870*
Y7314D02*
X4448D01*
X4059*
X4116Y6942D02*
X4059Y6870D01*
X4116Y6942*
X4402*
X4116*
X4151Y11404D02*
X4241Y11475D01*
X4151Y11404*
X4193Y7057D02*
Y7342D01*
Y7057*
X4200Y16600D02*
Y17400D01*
X5800*
X4200Y17600D02*
X5800D01*
X4200Y18400D02*
Y17600D01*
X4240Y15000D02*
G03X3000Y16240I1240D01*
X1760Y15000J1240*
X3000Y13760I1240*
X4240Y15000J1240*
G01X4241Y11476D02*
Y11904D01*
Y11476*
X4300Y14000D02*
X4000Y13700D01*
X4300Y14800D02*
X4450D01*
X4300Y16000D02*
Y14000D01*
X4411Y10205D02*
Y10905D01*
X4448Y7314D02*
X4194Y7057D01*
X4448Y7314*
X4450Y14800D02*
Y15200D01*
X4300*
X4459Y6656D02*
Y6870D01*
Y6656*
Y6870D02*
X4401Y6942D01*
X4459Y6870*
X4511Y12405D02*
Y13105D01*
X4911*
X4600Y16799D02*
Y17199D01*
Y16799*
Y17199D02*
X4686Y17085D01*
X4600Y17199*
X4658Y18199D02*
X4944D01*
X4658*
X4686Y16799D02*
X4514D01*
X4686*
X4700Y6270D02*
Y7730D01*
Y6270D02*
X5300D01*
X4700Y6470D02*
X5300D01*
X4700Y6800D02*
X5300D01*
X4700Y7530D02*
X5300D01*
X4700Y7730D02*
X5300D01*
X4858Y17085D02*
X5144Y16856D01*
X4858Y17085*
Y17142*
Y17085*
X4886Y17799D02*
X4658Y18199D01*
X4886Y17799*
X4911Y12405D02*
Y13105D01*
X4930Y17199D02*
X4858Y17142D01*
X4930Y17199*
X5058Y17856D02*
X5130Y17799D01*
X5058Y17856*
X5072Y17199D02*
X4930D01*
X5072*
X5130Y17799D02*
X5272D01*
X5130*
Y18199D02*
X5058Y18142D01*
X5130Y18199*
X5144Y16799D02*
X4858D01*
X5144*
Y16856D02*
Y16799D01*
Y16856*
Y17142D02*
X5072Y17199D01*
X5144Y17142*
X5161Y10905D02*
Y12405D01*
X2461*
X5258Y17056D02*
X5330Y16999D01*
X5258Y17056*
Y17142D02*
Y17056D01*
Y17142*
X5330Y17199*
X5258Y17142*
X5272Y17799D02*
X5344Y17856D01*
X5272Y17799*
Y18199D02*
X5130D01*
X5272*
X5300Y6270D02*
Y7730D01*
X5330Y16999D02*
X5259Y16799D01*
X5330Y16999*
X5344Y17856D02*
Y18142D01*
Y17856*
Y18142D02*
X5272Y18199D01*
X5344Y18142*
X5545Y16799D02*
Y17199D01*
Y16799*
Y16999D02*
X5330D01*
X5545*
Y17199D02*
X5330D01*
X5545*
X5800Y16600D02*
X4200D01*
X5800Y17400D02*
Y16600D01*
Y17600D02*
Y18400D01*
X4200*
X6600Y10200D02*
X7400D01*
X6600Y11800D02*
Y10200D01*
Y15200D02*
Y16800D01*
X7400*
X6600Y18200D02*
X7400D01*
X6600Y19800D02*
Y18200D01*
X6700Y7730D02*
Y6270D01*
X6809Y10528D02*
X6866Y10456D01*
X6809Y10528*
Y10670D02*
Y10528D01*
Y10670*
Y10914D02*
Y11085D01*
Y10914*
Y10999D02*
X7209D01*
X6809*
Y11329D02*
X6866Y11257D01*
X6809Y11329*
Y11471D02*
Y11329D01*
Y11471*
Y15656D02*
X7209D01*
X6809*
Y16114D02*
Y16286D01*
Y16114*
Y16200D02*
X7209D01*
X6809*
Y18728D02*
X6866Y18656D01*
X6809Y18728*
Y18870D02*
Y18728D01*
Y18870*
Y19314D02*
X7198D01*
X6809*
X6838Y11294D02*
X7180Y11507D01*
X6838Y11294*
X6866Y10456D02*
X7151D01*
X6866*
Y10742D02*
X6809Y10670D01*
X6866Y10742*
Y11257D02*
X7151D01*
X6866*
Y11542D02*
X6809Y11471D01*
X6866Y11542*
Y18656D02*
X7151D01*
X6866*
Y18942D02*
X6809Y18870D01*
X6866Y18942*
X6943Y19056D02*
Y19342D01*
Y19056*
X7009Y15656D02*
Y15870D01*
Y15656*
Y15870D02*
X6809Y15942D01*
X7009Y15870*
X7066Y15942D02*
X7009Y15870D01*
X7066Y15942*
X7151Y11542D02*
X6866D01*
X7151*
Y15942D02*
X7066D01*
X7151*
X7152Y10456D02*
X7209Y10528D01*
X7152Y10456*
Y11257D02*
X7209Y11329D01*
X7152Y11257*
Y15942D02*
X7209Y15870D01*
X7152Y15942*
Y18656D02*
X7209Y18728D01*
X7152Y18656*
X7198Y19314D02*
X6944Y19056D01*
X7198Y19314*
X7209Y10528D02*
Y10670D01*
Y10528*
Y10670D02*
X7152Y10742D01*
X7209Y10670*
Y10999D02*
X7094Y10914D01*
X7209Y10999*
Y11329D02*
Y11471D01*
Y11329*
Y11471D02*
X7152Y11542D01*
X7209Y11471*
Y15656D02*
Y15870D01*
Y15656*
Y16200D02*
X7094Y16114D01*
X7209Y16200*
Y18728D02*
Y18870D01*
Y18728*
Y18870D02*
X7152Y18942D01*
X7209Y18870*
X7270Y13700D02*
Y14300D01*
X7300Y6270D02*
X6700D01*
X7300Y6470D02*
X6700D01*
X7300Y7200D02*
X6700D01*
X7300Y7530D02*
X6700D01*
X7300Y7730D02*
X6700D01*
X7300D02*
Y6270D01*
X7400Y10200D02*
Y11800D01*
X6600*
X7400Y15200D02*
X6600D01*
X7400Y16800D02*
Y15200D01*
Y18200D02*
Y19800D01*
X6600*
X7470Y13700D02*
Y14300D01*
X7559Y6656D02*
X7959D01*
X7559*
Y6870D02*
Y6656D01*
Y6870*
Y7129D02*
X7616Y7057D01*
X7559Y7129*
Y7271D02*
Y7129D01*
Y7271*
X7600Y10200D02*
Y11800D01*
X8400*
X7616Y6942D02*
X7559Y6870D01*
X7616Y6942*
Y7342D02*
X7559Y7271D01*
X7616Y7342*
Y6942D02*
X7902D01*
X7616*
X7658Y14606D02*
X7729Y14549D01*
X7658Y14606*
Y14720D02*
Y14606D01*
Y14720*
X7701Y7342D02*
X7616D01*
X7701*
X7729Y14549D02*
X7871D01*
X7729*
Y14778D02*
X7658Y14720D01*
X7729Y14778*
Y14949D02*
X7658Y14892D01*
X7729Y14949*
X7759Y7272D02*
X7701Y7342D01*
X7759Y7272*
Y7198*
Y7272*
X7809Y10455D02*
X8209D01*
X7809*
Y10856D02*
Y11142D01*
Y10856*
Y11257D02*
Y11542D01*
Y11257*
X7816Y7342D02*
X7759Y7272D01*
X7816Y7342*
X7866Y10856D02*
X7809D01*
X7866*
Y11257D02*
X7809D01*
X7866*
X7871Y14549D02*
X7943Y14606D01*
X7871Y14549*
Y14778D02*
X7729D01*
X7871*
Y14949D02*
X7729D01*
X7871*
X7901Y7342D02*
X7816D01*
X7901*
X7902D02*
X7959Y7271D01*
X7902Y7342*
X7943Y14606D02*
Y14892D01*
Y14606*
Y14720D02*
X7871Y14778D01*
X7943Y14720*
Y14892D02*
X7871Y14949D01*
X7943Y14892*
X7959Y6656D02*
Y6870D01*
Y6656*
Y6870D02*
X7901Y6942D01*
X7959Y6870*
Y7129D02*
X7902Y7057D01*
X7959Y7129*
Y7271D02*
Y7129D01*
Y7271*
X8009Y10455D02*
Y10670D01*
Y10455*
Y10670D02*
X7809Y10741D01*
X8009Y10670*
X8058Y14606D02*
X8130Y14549D01*
X8058Y14606*
Y14607D02*
Y14892D01*
Y14607*
X8066Y10742D02*
X8009Y10670D01*
X8066Y10742*
X8094Y11142D02*
X8151D01*
X8094*
X7866Y10856*
X8094Y11142*
Y11542D02*
X8151D01*
X8094*
X7866Y11257*
X8094Y11542*
X8130Y14549D02*
X8344D01*
X8130*
Y14949D02*
X8058Y14892D01*
X8130Y14949*
X8151Y10742D02*
X8066D01*
X8151*
X8152D02*
X8209Y10670D01*
X8152Y10742*
Y10856D02*
X8209Y10928D01*
X8152Y10856*
Y11257D02*
X8209Y11329D01*
X8152Y11257*
X8200Y13700D02*
Y14300D01*
X8209Y10455D02*
Y10670D01*
Y10455*
Y10928D02*
Y11070D01*
Y10928*
Y11070D02*
X8152Y11142D01*
X8209Y11070*
Y11329D02*
Y11471D01*
Y11329*
Y11471D02*
X8152Y11542D01*
X8209Y11471*
X8344Y14549D02*
Y14949D01*
Y14549*
Y14949D02*
X8130D01*
X8344*
X8400Y10200D02*
X7600D01*
X8400Y11800D02*
Y10200D01*
X8530Y13700D02*
Y14300D01*
X8700Y7730D02*
Y6270D01*
X8730Y13700D02*
Y14300D01*
Y13700D02*
X7270D01*
X8730Y14300D02*
X7270D01*
X9200Y9600D02*
Y10400D01*
X10800*
X9300Y6270D02*
X8700D01*
X9300Y6470D02*
X8700D01*
X9300Y7200D02*
X8700D01*
X9300Y7530D02*
X8700D01*
X9300Y7730D02*
X8700D01*
X9300D02*
Y6270D01*
X9458Y10199D02*
X9743D01*
X9458*
X9559Y6656D02*
X9959D01*
X9559*
Y6870D02*
Y6656D01*
Y6870*
Y7057D02*
Y7342D01*
Y7057*
X9616Y6942D02*
X9559Y6870D01*
X9616Y6942*
Y7057D02*
X9559D01*
X9616*
Y6942D02*
X9902D01*
X9616*
X9686Y9799D02*
X9458Y10199D01*
X9686Y9799*
X9844Y7342D02*
X9616Y7057D01*
X9844Y7342*
X9901*
X9844*
X9902Y7057D02*
X9959Y7129D01*
X9902Y7057*
X9959Y6656D02*
Y6870D01*
Y6656*
Y6870D02*
X9901Y6942D01*
X9959Y6870*
Y7129D02*
Y7271D01*
Y7129*
Y7271D02*
X9902Y7342D01*
X9959Y7271*
X10001Y9799D02*
Y10199D01*
Y9799*
Y10199D02*
X10086Y10085D01*
X10001Y10199*
X10086Y9799D02*
X9915D01*
X10086*
X10200Y16600D02*
Y17400D01*
X11800*
X10258Y10056D02*
X10330Y9999D01*
X10258Y10056*
Y10142D02*
Y10056D01*
Y10142*
X10330Y10199*
X10258Y10142*
X10330Y9999D02*
X10259Y9799D01*
X10330Y9999*
X10458Y16856D02*
X10529Y16799D01*
X10458Y16856*
Y17142D02*
Y16856D01*
Y17142*
X10529Y16799D02*
X10671D01*
X10529*
Y17199D02*
X10458Y17142D01*
X10529Y17199*
X10545Y9799D02*
Y10199D01*
Y9799*
Y9999D02*
X10330D01*
X10545*
Y10199D02*
X10330D01*
X10545*
X10600Y3200D02*
Y4800D01*
X11400*
X10600Y5200D02*
Y6800D01*
X11400*
X10671Y16799D02*
X10743Y16856D01*
X10671Y16799*
Y17199D02*
X10529D01*
X10671*
X10706Y16828D02*
X10493Y17170D01*
X10706Y16828*
X10743Y16856D02*
Y17142D01*
Y16856*
Y17142D02*
X10671Y17199D01*
X10743Y17142*
X10800Y9600D02*
X9200D01*
X10800Y10400D02*
Y9600D01*
X10809Y3656D02*
X11209D01*
X10809*
Y4129D02*
Y4286D01*
Y4129*
Y4286D02*
X10852Y4328D01*
X10809Y4286*
Y5656D02*
X11209D01*
X10809*
Y6129D02*
X10866Y6057D01*
X10809Y6129*
Y6271D02*
Y6129D01*
Y6271*
X10852Y4086D02*
X10809Y4129D01*
X10852Y4086*
Y4328D02*
X10980D01*
X10852*
X10866Y6057D02*
X11151D01*
X10866*
Y6342D02*
X10809Y6271D01*
X10866Y6342*
X10980Y4086D02*
X10852D01*
X10980*
Y4328D02*
X11023Y4314D01*
X10980Y4328*
Y6057D02*
X11038Y6129D01*
X10980Y6057*
Y6342D02*
X10866D01*
X10980*
X11001Y16799D02*
Y17199D01*
Y16799*
Y17199D02*
X11086Y17085D01*
X11001Y17199*
X11009Y3656D02*
Y3870D01*
Y3656*
Y3870D02*
X10809Y3942D01*
X11009Y3870*
Y5656D02*
Y5870D01*
Y5656*
Y5870D02*
X10809Y5942D01*
X11009Y5870*
X11023Y4100D02*
X11066Y4086D01*
X11023Y4100*
X10980Y4086*
X11023Y4100*
Y4314D02*
Y4100D01*
Y4314*
X11038Y6129D02*
Y6271D01*
Y6129*
Y6271D02*
X10980Y6342D01*
X11038Y6271*
X11066Y3942D02*
X11009Y3870D01*
X11066Y3942*
Y4086D02*
X11166D01*
X11066*
Y4328D02*
X11023Y4314D01*
X11066Y4328*
Y5942D02*
X11009Y5870D01*
X11066Y5942*
X11086Y16799D02*
X10915D01*
X11086*
X11151Y3942D02*
X11066D01*
X11151*
Y5942D02*
X11066D01*
X11151*
X11152Y3942D02*
X11209Y3870D01*
X11152Y3942*
Y5942D02*
X11209Y5870D01*
X11152Y5942*
Y6057D02*
X11209Y6129D01*
X11152Y6057*
X11166Y4086D02*
X11209Y4129D01*
X11166Y4086*
Y4328D02*
X11066D01*
X11166*
X11200Y6600D02*
Y7400D01*
X12800*
X11200Y7600D02*
Y8400D01*
X12800*
X11209Y3656D02*
Y3870D01*
Y3656*
Y4129D02*
Y4286D01*
Y4129*
Y4286D02*
X11166Y4328D01*
X11209Y4286*
Y5656D02*
Y5870D01*
Y5656*
Y6129D02*
Y6271D01*
Y6129*
Y6271D02*
X11152Y6342D01*
X11209Y6271*
X11258Y17056D02*
X11330Y16999D01*
X11258Y17056*
Y17142D02*
Y17056D01*
Y17142*
X11330Y17199*
X11258Y17142*
X11330Y16999D02*
X11259Y16799D01*
X11330Y16999*
X11400Y3200D02*
X10600D01*
X11400Y4800D02*
Y3200D01*
Y5200D02*
X10600D01*
X11400Y6800D02*
Y5200D01*
X11458Y7856D02*
X11529Y7799D01*
X11458Y7856*
Y7970D02*
Y7856D01*
Y7970*
X11529Y7799D02*
X11671D01*
X11529*
Y8028D02*
X11458Y7970D01*
X11529Y8028*
Y8199D02*
X11458Y8142D01*
X11529Y8199*
X11545Y16799D02*
Y17199D01*
Y16799*
Y16999D02*
X11330D01*
X11545*
Y17199D02*
X11330D01*
X11545*
X11600Y14200D02*
Y15800D01*
X12400*
X11671Y7799D02*
X11743Y7856D01*
X11671Y7799*
Y8028D02*
X11529D01*
X11671*
Y8199D02*
X11529D01*
X11671*
X11686Y6799D02*
Y7187D01*
Y6799*
Y7188D02*
X11943Y6934D01*
X11686Y7188*
X11743Y7856D02*
Y8142D01*
Y7856*
Y7970D02*
X11671Y8028D01*
X11743Y7970*
Y8142D02*
X11671Y8199D01*
X11743Y8142*
X11800Y16600D02*
X10200D01*
X11800Y17400D02*
Y16600D01*
X11809Y14455D02*
X12209D01*
X11809*
Y14914D02*
Y15085D01*
Y14914*
Y14999D02*
X12209D01*
X11809*
Y15329D02*
Y15486D01*
Y15329*
Y15486D02*
X11852Y15528D01*
X11809Y15486*
X11852Y15286D02*
X11809Y15329D01*
X11852Y15286*
Y15528D02*
X11980D01*
X11852*
X11943Y6934D02*
X11658D01*
X11943*
X11980Y15286D02*
X11852D01*
X11980*
Y15528D02*
X12023Y15514D01*
X11980Y15528*
X12001Y7799D02*
Y8199D01*
Y7799*
Y8199D02*
X12086Y8085D01*
X12001Y8199*
X12009Y14455D02*
Y14670D01*
Y14455*
Y14670D02*
X11809Y14741D01*
X12009Y14670*
X12023Y15300D02*
X12066Y15286D01*
X12023Y15300*
X11980Y15286*
X12023Y15300*
Y15514D02*
Y15300D01*
Y15514*
X12058Y7056D02*
X12130Y6999D01*
X12058Y7056*
Y7142D02*
Y7056D01*
Y7142*
X12130Y7199*
X12058Y7142*
X12066Y14742D02*
X12009Y14670D01*
X12066Y14742*
Y15286D02*
X12166D01*
X12066*
Y15528D02*
X12023Y15514D01*
X12066Y15528*
X12086Y7799D02*
X11915D01*
X12086*
X12130Y6999D02*
X12058Y6799D01*
X12130Y6999*
X12151Y14742D02*
X12066D01*
X12151*
X12152D02*
X12209Y14670D01*
X12152Y14742*
X12166Y15286D02*
X12209Y15329D01*
X12166Y15286*
Y15528D02*
X12066D01*
X12166*
X12209Y14455D02*
Y14670D01*
Y14455*
Y14999D02*
X12094Y14914D01*
X12209Y14999*
Y15329D02*
Y15486D01*
Y15329*
Y15486D02*
X12166Y15528D01*
X12209Y15486*
X12258Y8056D02*
X12330Y7999D01*
X12258Y8056*
Y8142D02*
Y8056D01*
Y8142*
X12330Y8199*
X12258Y8142*
X12330Y7999D02*
X12259Y7799D01*
X12330Y7999*
X12344Y6799D02*
Y7199D01*
Y6799*
Y6999D02*
X12130D01*
X12344*
Y7199D02*
X12130D01*
X12344*
X12400Y14200D02*
X11600D01*
X12400Y15800D02*
Y14200D01*
X12500Y8650D02*
Y13350D01*
Y8650D02*
X13750D01*
X12500Y13350D02*
X15500D01*
X12545Y7799D02*
Y8199D01*
Y7799*
Y7999D02*
X12330D01*
X12545*
Y8199D02*
X12330D01*
X12545*
X12800Y6600D02*
X11200D01*
X12800Y7400D02*
Y6600D01*
Y7600D02*
X11200D01*
X12800Y8400D02*
Y7600D01*
X13200Y13600D02*
X14800D01*
X13200Y14400D02*
Y13600D01*
X13656Y13858D02*
X13728Y13801D01*
X13656Y13858*
Y14144D02*
Y13858D01*
Y14144*
X13728Y13801D02*
X13870D01*
X13728*
Y14201D02*
X13656Y14144D01*
X13728Y14201*
X13750Y8650D02*
G02X14000Y8900I250D01*
X14250Y8650J250*
G01X13761Y10660D02*
X13832Y10570D01*
X13761Y10660*
Y10838D02*
Y10660D01*
Y10838*
Y11393D02*
X14247D01*
X13761*
X13832Y10927D02*
X13761Y10838D01*
X13832Y10927*
X13833Y10570D02*
X14261D01*
X13833*
Y10927D02*
X14261D01*
X13833*
X13870Y13801D02*
X13942Y13858D01*
X13870Y13801*
Y14201D02*
X13728D01*
X13870*
X13929Y11071D02*
Y11428D01*
Y11071*
X13942Y14144D02*
X13870Y14201D01*
X13942Y14144*
X14056Y13858D02*
X14128Y13801D01*
X14056Y13858*
Y14030D02*
X14128Y13972D01*
X14056Y14030*
Y14144D02*
Y13858D01*
Y14144*
X14128Y13801D02*
X14270D01*
X14128*
Y13972D02*
X14270D01*
X14128*
Y14201D02*
X14056Y14144D01*
X14128Y14201*
X14247Y11393D02*
X13930Y11071D01*
X14247Y11393*
X14250Y8650D02*
X15500D01*
X14270Y13801D02*
X14342Y13858D01*
X14270Y13801*
Y13972D02*
X14342Y14030D01*
X14270Y13972*
Y14201D02*
X14128D01*
X14270*
X14342Y14030D02*
Y14144D01*
Y14030*
Y14144D02*
X14270Y14201D01*
X14342Y14144*
X14800Y13600D02*
Y14400D01*
X13200*
X15500Y8650D02*
Y13350D01*
X16200Y13600D02*
Y14400D01*
X17800*
X16200Y14600D02*
Y15400D01*
X17800*
X16200Y15600D02*
Y16400D01*
X17800*
X16458Y13856D02*
X16529Y13799D01*
X16458Y13856*
Y14142D02*
Y13856D01*
Y14142*
Y14856D02*
X16529Y14799D01*
X16458Y14856*
Y15028D02*
X16529Y14970D01*
X16458Y15028*
Y15142D02*
Y14856D01*
Y15142*
Y16085D02*
X16743Y15856D01*
X16458Y16085*
Y16142*
Y16085*
X16529Y13799D02*
X16671D01*
X16529*
Y14199D02*
X16458Y14142D01*
X16529Y14199*
Y14799D02*
X16671D01*
X16529*
Y14970D02*
X16671D01*
X16529*
Y15199D02*
X16458Y15142D01*
X16529Y15199*
Y16199D02*
X16458Y16142D01*
X16529Y16199*
X16671Y13799D02*
X16743Y13856D01*
X16671Y13799*
Y14199D02*
X16529D01*
X16671*
Y14799D02*
X16743Y14856D01*
X16671Y14799*
Y14970D02*
X16743Y15028D01*
X16671Y14970*
Y15199D02*
X16529D01*
X16671*
Y16199D02*
X16529D01*
X16671*
X16706Y13828D02*
X16493Y14170D01*
X16706Y13828*
X16743Y13856D02*
Y14142D01*
Y13856*
Y14142D02*
X16671Y14199D01*
X16743Y14142*
Y15028D02*
Y15142D01*
Y15028*
Y15142D02*
X16671Y15199D01*
X16743Y15142*
Y15799D02*
X16458D01*
X16743*
Y15856D02*
Y15799D01*
Y15856*
Y16142D02*
X16671Y16199D01*
X16743Y16142*
X16858Y14085D02*
X17144Y13856D01*
X16858Y14085*
Y14142*
Y14085*
X16930Y14199D02*
X16858Y14142D01*
X16930Y14199*
X17001Y14799D02*
Y15199D01*
Y14799*
Y15199D02*
X17086Y15085D01*
X17001Y15199*
Y15799D02*
Y16199D01*
Y15799*
Y16199D02*
X17086Y16085D01*
X17001Y16199*
X17072Y14199D02*
X16930D01*
X17072*
X17075Y7720D02*
Y12280D01*
Y11250D02*
G02X18000Y12175I925D01*
X18925Y11250J925*
G01X17075Y12280D02*
X18925D01*
Y7720*
X17075*
X17086Y14799D02*
X16915D01*
X17086*
Y15799D02*
X16915D01*
X17086*
X17144Y13799D02*
X16858D01*
X17144*
Y13856D02*
Y13799D01*
Y13856*
Y14142D02*
X17072Y14199D01*
X17144Y14142*
X17250Y11250D02*
G02X18000Y12000I750D01*
X18750Y11250J750*
G01X17250D02*
Y8750D01*
X17258Y14056D02*
X17330Y13999D01*
X17258Y14056*
Y14142D02*
Y14056D01*
Y14142*
X17330Y14199*
X17258Y14142*
Y15056D02*
X17330Y14999D01*
X17258Y15056*
Y15142D02*
Y15056D01*
Y15142*
X17330Y15199*
X17258Y15142*
Y16056D02*
X17330Y15999D01*
X17258Y16056*
Y16142D02*
Y16056D01*
Y16142*
X17330Y16199*
X17258Y16142*
X17330Y13999D02*
X17259Y13799D01*
X17330Y13999*
Y14999D02*
X17259Y14799D01*
X17330Y14999*
Y15999D02*
X17259Y15799D01*
X17330Y15999*
X17545Y13799D02*
Y14199D01*
Y13799*
Y13999D02*
X17330D01*
X17545*
Y14199D02*
X17330D01*
X17545*
Y14799D02*
Y15199D01*
Y14799*
Y14999D02*
X17330D01*
X17545*
Y15199D02*
X17330D01*
X17545*
Y15799D02*
Y16199D01*
Y15799*
Y15999D02*
X17330D01*
X17545*
Y16199D02*
X17330D01*
X17545*
X17761Y9570D02*
X18261Y9927D01*
X17761Y9570*
Y9927D02*
X18261Y9570D01*
X17761Y9927*
Y10143D02*
Y10357D01*
Y10143*
Y10250D02*
X18261D01*
X17761*
X17800Y12280D02*
Y12150D01*
Y13600D02*
X16200D01*
X17800Y14400D02*
Y13600D01*
Y14600D02*
X16200D01*
X17800Y15400D02*
Y14600D01*
Y15600D02*
X16200D01*
X17800Y16400D02*
Y15600D01*
X17850Y7840D02*
Y7720D01*
X18200Y7850D02*
Y7720D01*
Y12280D02*
Y12150D01*
X18261Y10250D02*
X18118Y10143D01*
X18261Y10250*
X18750Y8750D02*
G02X18000Y8000I750D01*
X17250Y8750J750*
G01X18750Y11250D02*
Y8750D01*
X18925D02*
G02X18000Y7825I925D01*
X17075Y8750J925*
G01X19600Y8200D02*
X20400D01*
X19600Y9800D02*
Y8200D01*
Y10200D02*
X20400D01*
X19600Y11800D02*
Y10200D01*
X19760Y5020D02*
Y6960D01*
X19809Y8728D02*
X19866Y8656D01*
X19809Y8728*
Y8870D02*
Y8728D01*
Y8870*
Y9128D02*
X19866Y9056D01*
X19809Y9128*
Y9270D02*
Y9128D01*
Y9270*
Y10728D02*
X19866Y10656D01*
X19809Y10728*
Y10870D02*
Y10728D01*
Y10870*
Y11128D02*
Y11270D01*
Y11128*
Y11270D02*
X19866Y11342D01*
X19809Y11270*
X19866Y8656D02*
X20151D01*
X19866*
Y8942D02*
X19809Y8870D01*
X19866Y8942*
Y9342D02*
X19809Y9270D01*
X19866Y9342*
Y10656D02*
X20151D01*
X19866*
Y10942D02*
X19809Y10870D01*
X19866Y10942*
Y11056D02*
X19809Y11128D01*
X19866Y11056*
Y11342D02*
X20008D01*
X19866*
X19951Y9342D02*
X19866D01*
X19951*
X20008Y11056D02*
X20066Y11128D01*
X20008Y11056*
Y11342D02*
X20066Y11270D01*
X20008Y11342*
X20009Y9271D02*
X19951Y9342D01*
X20009Y9271*
Y9198*
Y9271*
X20040Y5020D02*
Y6960D01*
X20066Y9342D02*
X20009Y9271D01*
X20066Y9342*
Y11128D02*
Y11270D01*
Y11128*
X20151Y9342D02*
X20066D01*
X20151*
X20152Y8656D02*
X20209Y8728D01*
X20152Y8656*
Y9342D02*
X20209Y9270D01*
X20152Y9342*
Y10656D02*
X20209Y10728D01*
X20152Y10656*
X20209Y8728D02*
Y8870D01*
Y8728*
Y8870D02*
X20152Y8942D01*
X20209Y8870*
Y9128D02*
X20152Y9056D01*
X20209Y9128*
Y9270D02*
Y9128D01*
Y9270*
Y10728D02*
Y10870D01*
Y10728*
Y10870D02*
X20152Y10942D01*
X20209Y10870*
Y11056D02*
X20008D01*
X20209*
Y11342*
Y11056*
X20400Y8200D02*
Y9800D01*
X19600*
X20400Y10200D02*
Y11800D01*
X19600*
X20572Y4749D02*
X20929D01*
X20572*
X20600Y12200D02*
Y13800D01*
X21400*
X20809Y12455D02*
X21209D01*
X20809*
Y12914D02*
Y13085D01*
Y12914*
Y12999D02*
X21209D01*
X20809*
Y13314D02*
Y13486D01*
Y13314*
Y13400D02*
X21209D01*
X20809*
X20857Y4249D02*
X20572Y4749D01*
X20857Y4249*
X21009Y12455D02*
Y12670D01*
Y12455*
Y12670D02*
X20809Y12741D01*
X21009Y12670*
X21066Y12742D02*
X21009Y12670D01*
X21066Y12742*
X21073Y4320D02*
X21162Y4249D01*
X21073Y4320*
Y4321D02*
Y4678D01*
Y4321*
X21151Y12742D02*
X21066D01*
X21151*
X21152D02*
X21209Y12670D01*
X21152Y12742*
X21162Y4249D02*
X21430D01*
X21162*
Y4749D02*
X21073Y4677D01*
X21162Y4749*
X21209Y12455D02*
Y12670D01*
Y12455*
Y12999D02*
X21094Y12914D01*
X21209Y12999*
Y13400D02*
X21094Y13314D01*
X21209Y13400*
X21250Y8100D02*
Y9900D01*
X21400Y12200D02*
X20600D01*
X21400Y13800D02*
Y12200D01*
X21430Y4249D02*
Y4749D01*
Y4249*
Y4749D02*
X21162D01*
X21430*
X21750Y8749D02*
Y9249D01*
Y8749*
Y9249D02*
X21857Y9106D01*
X21750Y9249*
X21857Y8749D02*
X21643D01*
X21857*
X21940Y5020D02*
Y6960D01*
X22073Y8820D02*
X22162Y8749D01*
X22073Y8820*
Y8821D02*
Y9249D01*
Y8821*
X22162Y8749D02*
X22340D01*
X22162*
X22220Y5020D02*
Y6960D01*
Y5020D02*
X19760D01*
X22220Y6960D02*
X19760D01*
X22250Y8100D02*
X22750Y8500D01*
X22340Y8749D02*
X22430Y8820D01*
X22340Y8749*
X22430Y8821D02*
Y9249D01*
Y8821*
X22750Y8100D02*
Y9900D01*
Y8100D02*
X21250D01*
X22750Y9900D02*
X21250D01*
G54D11*
X1550Y13700D02*
X4450D01*
Y16300*
X1550*
Y13700*
X1600Y11200D02*
X2400D01*
Y12800*
X1600*
Y11200*
X2461Y10205D02*
X5161D01*
Y13105*
X2461*
Y10205*
X2700Y6270D02*
X3300D01*
Y7730*
X2700*
Y6270*
X4200Y16600D02*
X5800D01*
Y17400*
X4200*
Y16600*
Y17600D02*
X5800D01*
Y18400*
X4200*
Y17600*
X4700Y6270D02*
X5300D01*
Y7730*
X4700*
Y6270*
X6600Y10200D02*
X7400D01*
Y11800*
X6600*
Y10200*
Y15200D02*
X7400D01*
Y16800*
X6600*
Y15200*
Y18200D02*
X7400D01*
Y19800*
X6600*
Y18200*
X6700Y6270D02*
X7300D01*
Y7730*
X6700*
Y6270*
X7270Y13700D02*
X8730D01*
Y14300*
X7270*
Y13700*
X7600Y10200D02*
X8400D01*
Y11800*
X7600*
Y10200*
X8700Y6270D02*
X9300D01*
Y7730*
X8700*
Y6270*
X9200Y9600D02*
X10800D01*
Y10400*
X9200*
Y9600*
X10200Y16600D02*
X11800D01*
Y17400*
X10200*
Y16600*
X10600Y3200D02*
X11400D01*
Y4800*
X10600*
Y3200*
Y5200D02*
X11400D01*
Y6800*
X10600*
Y5200*
X11200Y6600D02*
X12800D01*
Y7400*
X11200*
Y6600*
Y7600D02*
X12800D01*
Y8400*
X11200*
Y7600*
X11600Y14200D02*
X12400D01*
Y15800*
X11600*
Y14200*
X12000Y8650D02*
X16000D01*
Y13350*
X12000*
Y8650*
X13200Y13600D02*
X14800D01*
Y14400*
X13200*
Y13600*
X16200D02*
X17800D01*
Y14400*
X16200*
Y13600*
Y14600D02*
X17800D01*
Y15400*
X16200*
Y14600*
Y15600D02*
X17800D01*
Y16400*
X16200*
Y15600*
X17075Y7720D02*
X18925D01*
Y12280*
X17075*
Y7720*
X19600Y8200D02*
X20400D01*
Y9800*
X19600*
Y8200*
Y10200D02*
X20400D01*
Y11800*
X19600*
Y10200*
X19760Y5020D02*
X22220D01*
Y6960*
X19760*
Y5020*
X20600Y12200D02*
X21400D01*
Y13800*
X20600*
Y12200*
X21250Y7750D02*
X22750D01*
Y10250*
X21250*
Y7750*
M02*
