*
G04 Job   : F:\FRHA\RemoteDimmer\PCB\RemoteDimmerPic\PCB\REMOTEDIMMERPIC.PCB*
G04 User  : PC-FRHA:frha*
G04 Layer : DrillMask.gdo*
G04 Date  : Wed May 09 14:36:28 2001*
%ICAS*%
%MOIN*%
%FSLAX24Y24*%
%OFA0.0000B0.0000*%
G90*
%ADD14C,0.0280*%
%ADD13C,0.0310*%
%ADD10C,0.0390*%
%ADD12C,0.0470*%
%ADD11C,0.1100*%
G01*
G54D10*
X3000Y3000D03*
Y9000D03*
X4000Y3000D03*
Y9000D03*
X5000Y3000D03*
Y9000D03*
X6000Y3000D03*
Y9000D03*
X7000Y3000D03*
Y9000D03*
Y13000D03*
X8000Y3000D03*
Y9000D03*
X9000Y3000D03*
Y9000D03*
Y13000D03*
X10000Y11000D03*
X11000Y15000D03*
X13000Y1500D03*
Y2500D03*
Y15500D03*
Y16500D03*
X13500Y4500D03*
Y5500D03*
Y6500D03*
Y7500D03*
X14000Y1500D03*
Y2500D03*
Y15500D03*
Y16500D03*
X14500Y4500D03*
Y5500D03*
Y6500D03*
Y7500D03*
X15000Y1500D03*
Y2500D03*
Y15500D03*
Y16500D03*
X17000Y1500D03*
Y6500D03*
X18000Y1500D03*
Y6500D03*
Y14000D03*
Y15000D03*
X24000Y6750D03*
Y11250D03*
X25000Y14500D03*
Y19500D03*
X27500Y14000D03*
Y15000D03*
Y16000D03*
X28500Y14000D03*
Y15000D03*
Y16000D03*
G54D11*
X2000Y18000D03*
G54D12*
X9000Y17000D03*
Y18000D03*
Y19000D03*
X19570Y3000D03*
X23000Y13000D03*
X24000D03*
X25000D03*
X28420Y3000D03*
G54D13*
X20500Y15000D03*
Y16000D03*
Y17000D03*
X23500Y15000D03*
Y16000D03*
Y17000D03*
G54D14*
X8151Y15601D03*
X10790Y12497D03*
X11250Y10565D03*
X12994Y18386D03*
X15649Y14662D03*
X19921Y13315D03*
X21331Y18387D03*
M02*
