*
G04 Job   : F:\FRHA\RemoteDimmer\PCB\RemoteDimmerPic\PCB\REMOTEDIMMERPIC.PCB*
G04 User  : PC-FRHA:frha*
G04 Layer : Layer2.gdo*
G04 Date  : Wed May 09 14:36:27 2001*
%ICAS*%
%MOIN*%
%FSLAX24Y24*%
%OFA0.0000B0.0000*%
G90*
%AMVB_RECTANGLE*
21,1,$1,$2,0,0,$3*
%
%ADD24C,0.0050*%
%ADD10C,0.0080*%
%ADD25C,0.0100*%
%ADD27C,0.0160*%
%ADD23C,0.0200*%
%ADD28C,0.0280*%
%ADD26C,0.0320*%
%ADD29C,0.0550*%
%ADD19C,0.0600*%
%ADD12C,0.0630*%
%ADD17C,0.0750*%
%ADD71VB_RECTANGLE,0.0250X0.0600X180.0000*%
%ADD16VB_RECTANGLE,0.0250X0.0600X90.0000*%
%ADD13VB_RECTANGLE,0.0460X0.0650X0.0000*%
%ADD14VB_RECTANGLE,0.0460X0.0650X90.0000*%
%ADD15VB_RECTANGLE,0.0500X0.0750X180.0000*%
%ADD18VB_RECTANGLE,0.0500X0.0750X270.0000*%
%ADD70VB_RECTANGLE,0.0500X0.1600X180.0000*%
%ADD21VB_RECTANGLE,0.0600X0.0800X180.0000*%
%ADD22VB_RECTANGLE,0.0600X0.1400X90.0000*%
%ADD11VB_RECTANGLE,0.0800X0.2000X180.0000*%
%ADD20VB_RECTANGLE,0.1500X0.0800X180.0000*%
G01*
G54D10*
X30250D01*
Y20500*
X0*
Y0*
X16864Y10500D02*
X16932Y10568D01*
G54D11*
X19910Y6000D03*
X22090D03*
G54D12*
X3000Y3000D03*
Y9000D03*
X4000Y3000D03*
Y9000D03*
X5000Y3000D03*
Y9000D03*
X6000Y3000D03*
Y9000D03*
X7000Y3000D03*
Y9000D03*
Y13000D03*
X8000Y3000D03*
Y9000D03*
X9000Y3000D03*
Y9000D03*
Y13000D03*
X10000Y11000D03*
X11000Y15000D03*
X13000Y1500D03*
Y2500D03*
Y15500D03*
Y16500D03*
X13500Y4500D03*
Y5500D03*
Y6500D03*
Y7500D03*
X14000Y1500D03*
Y2500D03*
Y15500D03*
Y16500D03*
X14500Y4500D03*
Y5500D03*
Y6500D03*
Y7500D03*
X15000Y1500D03*
Y2500D03*
Y15500D03*
Y16500D03*
X17000Y1500D03*
Y6500D03*
X18000Y1500D03*
Y6500D03*
Y14000D03*
Y15000D03*
X24000Y6750D03*
Y11250D03*
X25000Y14500D03*
Y19500D03*
X27500Y14000D03*
Y15000D03*
Y16000D03*
X28500Y14000D03*
Y15000D03*
Y16000D03*
G54D13*
X4620Y17000D03*
Y18000D03*
X5380Y17000D03*
Y18000D03*
X9620Y10000D03*
X10380D03*
X10620Y17000D03*
X11380D03*
X11620Y7000D03*
Y8000D03*
X12380Y7000D03*
Y8000D03*
X13620Y14000D03*
X14380D03*
X16620D03*
Y15000D03*
Y16000D03*
X17380Y14000D03*
Y15000D03*
Y16000D03*
G54D14*
X2000Y11620D03*
Y12380D03*
X7000Y10620D03*
Y11380D03*
Y15620D03*
Y16380D03*
Y18620D03*
Y19380D03*
X8000Y10620D03*
Y11380D03*
X11000Y3620D03*
Y4380D03*
Y5620D03*
Y6380D03*
X12000Y14620D03*
Y15380D03*
X20000Y8620D03*
Y9380D03*
Y10620D03*
Y11380D03*
X21000Y12620D03*
Y13380D03*
G54D15*
X7380Y14000D03*
X8620D03*
G54D16*
X12000Y9000D03*
Y9500D03*
Y10000D03*
Y10500D03*
Y11000D03*
Y11500D03*
Y12000D03*
Y12500D03*
Y13000D03*
X16000Y9000D03*
Y9500D03*
Y10000D03*
Y10500D03*
Y11000D03*
Y11500D03*
Y12000D03*
Y12500D03*
Y13000D03*
G54D17*
X9000Y17000D03*
Y18000D03*
Y19000D03*
X19570Y3000D03*
X23000Y13000D03*
X24000D03*
X25000D03*
X28420Y3000D03*
G54D18*
X3000Y6380D03*
Y7620D03*
X5000Y6380D03*
Y7620D03*
X7000Y6380D03*
Y7620D03*
X9000Y6380D03*
Y7620D03*
G54D19*
X20500Y15000D03*
Y16000D03*
Y17000D03*
X23500Y15000D03*
Y16000D03*
Y17000D03*
G54D20*
X3811Y10317D03*
G54D21*
X2905Y12994D03*
X3811D03*
X4716D03*
G54D22*
X1910Y15000D03*
X4090D03*
G54D23*
X22980Y9124D02*
X23516Y9874D01*
X22980Y9124*
Y9874*
Y9124*
X23023Y2648D02*
Y3161D01*
Y2648*
Y2991D02*
X23880D01*
X23023*
Y3164D02*
X23433Y3848D01*
X23023Y3164*
X23462Y3848D02*
X23433D01*
X23462*
X23516Y9124D02*
Y9874D01*
Y9124*
X23732Y9766D02*
X23865Y9874D01*
X23732Y9766*
Y9230*
Y9766*
X23865Y9124D02*
X23732Y9230D01*
X23865Y9124*
Y9874D02*
X24132D01*
X23865*
X23880Y2648D02*
Y3161D01*
Y2648*
Y3164D02*
X23462Y3848D01*
X23880Y3164*
X24132Y9124D02*
X23865D01*
X24132*
Y9874D02*
X24267Y9766D01*
X24132Y9874*
X24225Y2648D02*
Y3848D01*
Y2648*
Y3248D02*
X25082D01*
X24225*
X24267Y9230D02*
X24132Y9124D01*
X24267Y9230*
Y9766D02*
Y9230D01*
Y9766*
X24590Y9124D02*
X24911D01*
X24590*
Y9874D02*
X24911D01*
X24590*
X24750Y9124D02*
Y9874D01*
Y9124*
X25082Y2648D02*
Y3848D01*
Y2648*
X25235Y9874D02*
X25770D01*
X25235*
X25425Y3418D02*
X25641Y3248D01*
X25425Y3418*
Y3675D02*
Y3418D01*
Y3675*
Y3677D02*
X25641Y3848D01*
X25425Y3677*
X25502Y9124D02*
Y9874D01*
Y9124*
X25641Y3248D02*
X25428Y2648D01*
X25641Y3248*
X25986Y9230D02*
X26120Y9124D01*
X25986Y9230*
Y9232D02*
Y9874D01*
Y9232*
X26120Y9124D02*
X26387D01*
X26120*
X26284Y2648D02*
Y3848D01*
Y2648*
Y3248D02*
X25641D01*
X26284*
Y3848D02*
X25641D01*
X26284*
X26387Y9124D02*
X26522Y9230D01*
X26387Y9124*
X26522Y9232D02*
Y9874D01*
Y9232*
X26630Y3848D02*
X27487D01*
X26630*
X26739Y9124D02*
Y9445D01*
Y9124*
Y9338D02*
X27275D01*
X26739*
Y9446D02*
X26996Y9874D01*
X26739Y9446*
X26884Y3303D02*
X27487D01*
X26884*
X27014Y9874D02*
X26996D01*
X27014*
X27275Y9124D02*
Y9445D01*
Y9124*
Y9446D02*
X27014Y9874D01*
X27275Y9446*
X27487Y2648D02*
Y3848D01*
Y2648*
X27489Y9230D02*
X27623Y9124D01*
X27489Y9230*
X27623Y9124D02*
X27890D01*
X27623*
Y9874D02*
X27489Y9767D01*
X27623Y9874*
X27890Y9124D02*
X28025Y9230D01*
X27890Y9124*
Y9874D02*
X27623D01*
X27890*
X28025Y9230D02*
Y9766D01*
Y9230*
Y9767D02*
X27890Y9874D01*
X28025Y9767*
G54D24*
X9607Y1999D02*
X9623Y1982D01*
X9607Y1999*
X9623Y1982D02*
X9649Y1970D01*
X9623Y1982*
X9649Y1970D02*
X9707D01*
X9649*
X9707D02*
X9737Y1981D01*
X9707Y1970*
X9737Y1981D02*
X9749Y1999D01*
X9737Y1981*
X9761Y2018D02*
X9749Y1999D01*
X9761Y2018*
X9792Y2028D02*
X9761Y2018D01*
X9792Y2028*
X9849D02*
X9792D01*
X9849*
X9876Y2017D02*
X9849Y2028D01*
X9876Y2017*
X9892Y1999D02*
X9876Y2017D01*
X9892Y1999*
X9996Y2199D02*
X10132Y1799D01*
X9996Y2199*
X10132Y1799D02*
X10144D01*
X10132*
X10281Y2199D02*
X10144Y1799D01*
X10281Y2199*
X10408Y1856D02*
X10480Y1799D01*
X10408Y1856*
Y2142D02*
Y1856D01*
Y2142*
X10480Y1799D02*
X10622D01*
X10480*
Y2199D02*
X10408Y2142D01*
X10480Y2199*
X10622Y1799D02*
X10694Y1856D01*
X10622Y1799*
Y2199D02*
X10480D01*
X10622*
X10657Y1828D02*
X10444Y2170D01*
X10657Y1828*
X10694Y1856D02*
Y2142D01*
Y1856*
Y2142D02*
X10622Y2199D01*
X10694Y2142*
X10809Y1856D02*
X10880Y1799D01*
X10809Y1856*
Y1942D02*
Y1856D01*
Y1942*
Y2056D02*
X10880Y1999D01*
X10809Y2056*
Y2142D02*
Y2056D01*
Y2142*
X10880Y2199*
X10809Y2142*
X10880Y1999D02*
X10809Y1942D01*
X10880Y1999*
X10953*
X10880*
Y1799D02*
X11023D01*
X10880*
Y2199D02*
X11023D01*
X10880*
X11023Y1799D02*
X11095Y1856D01*
X11023Y1799*
Y2199D02*
X11095Y2142D01*
X11023Y2199*
X11210Y2085D02*
X11496Y1856D01*
X11210Y2085*
Y2142*
Y2085*
X11281Y2199D02*
X11210Y2142D01*
X11281Y2199*
X11424D02*
X11281D01*
X11424*
X11496Y1799D02*
X11210D01*
X11496*
Y1856D02*
Y1799D01*
Y1856*
Y2142D02*
X11424Y2199D01*
X11496Y2142*
X11637Y1970D02*
X11866D01*
X11637*
X11752Y2085D02*
Y1856D01*
Y2085*
X15309Y4154D02*
X15480D01*
X15309*
Y4439D02*
X15480D01*
X15309*
Y4555D02*
X15709D01*
X15309*
Y4770D02*
Y4555D01*
Y4770*
Y4956D02*
X15709D01*
X15309*
Y5170D02*
Y4956D01*
Y5170*
Y5357D02*
X15709D01*
X15309*
Y5758D02*
X15709D01*
X15309*
Y6043D02*
Y5758D01*
Y6043*
Y6230D02*
Y6373D01*
Y6230*
Y6373D02*
X15366Y6444D01*
X15309Y6373*
Y6631D02*
Y6774D01*
Y6631*
Y6774D02*
X15366Y6845D01*
X15309Y6774*
X15366Y4841D02*
X15309Y4770D01*
X15366Y4841*
Y5242D02*
X15309Y5170D01*
X15366Y5242*
Y6158D02*
X15309Y6230D01*
X15366Y6158*
Y6444D02*
X15452D01*
X15366*
Y6559D02*
X15309Y6631D01*
X15366Y6559*
Y6845D02*
X15452D01*
X15366*
Y4841D02*
X15652D01*
X15366*
Y5242D02*
X15652D01*
X15366*
X15423Y4439D02*
Y4154D01*
Y4439*
X15481Y4154D02*
X15709Y4293D01*
X15481Y4154*
Y4439D02*
X15709Y4302D01*
X15481Y4439*
X15509Y5357D02*
Y5571D01*
Y5357*
Y5571D02*
X15309Y5642D01*
X15509Y5571*
Y5958D02*
Y5758D01*
Y5958*
Y6230D02*
X15566Y6158D01*
X15509Y6230*
Y6373D02*
Y6230D01*
Y6373*
X15451Y6444*
X15509Y6373*
Y6631D02*
X15566Y6559D01*
X15509Y6631*
Y6774D02*
Y6631D01*
Y6774*
X15451Y6845*
X15509Y6774*
X15566Y5643D02*
X15509Y5571D01*
X15566Y5643*
Y6158D02*
X15651D01*
X15566*
Y6559D02*
X15651D01*
X15566*
X15651Y5643D02*
X15566D01*
X15651*
X15652D02*
X15709Y5571D01*
X15652Y5643*
Y6158D02*
X15709Y6230D01*
X15652Y6158*
Y6559D02*
X15709Y6631D01*
X15652Y6559*
X15709Y4293D02*
Y4302D01*
Y4293*
Y4555D02*
Y4770D01*
Y4555*
Y4770D02*
X15651Y4841D01*
X15709Y4770*
Y4956D02*
Y5170D01*
Y4956*
Y5170D02*
X15651Y5242D01*
X15709Y5170*
Y5357D02*
Y5571D01*
Y5357*
Y6043D02*
Y5758D01*
Y6043*
Y6230D02*
Y6373D01*
Y6230*
Y6373D02*
X15666Y6426D01*
X15709Y6373*
Y6631D02*
Y6774D01*
Y6631*
Y6774D02*
X15666Y6827D01*
X15709Y6774*
X15757Y17106D02*
X15828Y17049D01*
X15757Y17106*
Y17220D02*
Y17106D01*
Y17220*
Y17606D02*
X15828Y17549D01*
X15757Y17606*
Y17720D02*
Y17606D01*
Y17720*
X15828Y17049D02*
X15970D01*
X15828*
Y17220D02*
X15757D01*
X15828*
Y17449D02*
X15757Y17392D01*
X15828Y17449*
Y17549D02*
X15970D01*
X15828*
Y17720D02*
X15757D01*
X15828*
Y17949D02*
X15757Y17892D01*
X15828Y17949*
X15970Y17049D02*
X16042Y17106D01*
X15970Y17049*
Y17449D02*
X15828D01*
X15970*
Y17549D02*
X16042Y17606D01*
X15970Y17549*
Y17949D02*
X15828D01*
X15970*
X16042Y17106D02*
Y17392D01*
Y17106*
Y17392D02*
X15970Y17449D01*
X16042Y17392*
Y17606D02*
Y17892D01*
Y17606*
Y17892D02*
X15970Y17949D01*
X16042Y17892*
X16158Y17106D02*
X16229Y17049D01*
X16158Y17106*
Y17107D02*
Y17449D01*
Y17107*
Y17892D02*
Y17606D01*
Y17892*
X16229Y17949*
X16158Y17892*
X16229Y17049D02*
X16371D01*
X16229*
Y17549D02*
X16158Y17606D01*
X16229Y17549*
Y17949D02*
X16371D01*
X16229*
X16371Y17049D02*
X16443Y17106D01*
X16371Y17049*
Y17549D02*
X16229D01*
X16371*
Y17949D02*
X16443Y17892D01*
X16371Y17949*
X16443Y17107D02*
Y17449D01*
Y17107*
Y17606D02*
X16371Y17549D01*
X16443Y17606*
Y17892D02*
Y17606D01*
Y17892*
X16558Y17806D02*
X16630Y17749D01*
X16558Y17806*
Y17892D02*
Y17806D01*
Y17892*
X16630Y17949*
X16558Y17892*
Y17049D02*
X16844D01*
X16558*
X16630Y17749D02*
X16558Y17549D01*
X16630Y17749*
X16844Y17049D02*
Y17449D01*
Y17049*
Y17549D02*
Y17949D01*
Y17549*
Y17749D02*
X16630D01*
X16844*
Y17949D02*
X16630D01*
X16844*
X16958Y17306D02*
X17030Y17249D01*
X16958Y17306*
Y17392D02*
Y17306D01*
Y17392*
X17030Y17449*
X16958Y17392*
Y17806D02*
X17030Y17749D01*
X16958Y17806*
Y17892D02*
Y17806D01*
Y17892*
X17030Y17949*
X16958Y17892*
X17245Y17049D02*
Y17449D01*
Y17049*
Y17249D02*
X17030D01*
X17245*
Y17449D02*
X17030D01*
X17245*
Y17549D02*
Y17949D01*
Y17549*
Y17749D02*
X17030D01*
X17245*
Y17949D02*
X17030D01*
X17245*
X27256Y17056D02*
X27328Y16999D01*
X27256Y17056*
Y17142D02*
Y17056D01*
Y17142*
X27328Y17199*
X27256Y17142*
X27542Y16799D02*
Y17199D01*
Y16799*
Y16999D02*
X27328D01*
X27542*
Y17199D02*
X27328D01*
X27542*
X27658Y16799D02*
Y17199D01*
Y16799*
X27800Y16970D02*
X27658Y17199D01*
X27800Y16970*
X27943Y17199*
X27800Y16970*
X27943Y16799D02*
Y17199D01*
Y16799*
X28059D02*
Y16970D01*
Y16799*
Y16914D02*
X28345D01*
X28059*
Y16971D02*
X28196Y17199D01*
X28059Y16971*
X28206Y17199D02*
X28196D01*
X28206*
X28345Y16799D02*
Y16970D01*
Y16799*
Y16971D02*
X28206Y17199D01*
X28345Y16971*
X28460Y16799D02*
X28746D01*
X28460*
X28746D02*
Y17199D01*
Y16799*
G54D25*
X22060Y1598D02*
Y2398D01*
Y1598*
Y2398D02*
X22232Y2170D01*
X22060Y2398*
X22232Y1598D02*
X21889D01*
X22232*
X22577Y1712D02*
X22720Y1598D01*
X22577Y1712*
Y2283D02*
Y1712D01*
Y2283*
X22720Y1598D02*
X23004D01*
X22720*
Y2398D02*
X22577Y2285D01*
X22720Y2398*
X23004Y1598D02*
X23148Y1712D01*
X23004Y1598*
Y2398D02*
X22720D01*
X23004*
X23075Y1656D02*
X22648Y2341D01*
X23075Y1656*
X23148Y1712D02*
Y2283D01*
Y1712*
Y2285D02*
X23004Y2398D01*
X23148Y2285*
X23379Y1712D02*
X23521Y1598D01*
X23379Y1712*
Y2283D02*
Y1712D01*
Y2283*
X23521Y1598D02*
X23806D01*
X23521*
Y2398D02*
X23379Y2285D01*
X23521Y2398*
X23806Y1598D02*
X23950Y1712D01*
X23806Y1598*
Y2398D02*
X23521D01*
X23806*
X23876Y1656D02*
X23449Y2341D01*
X23876Y1656*
X23950Y1712D02*
Y2283D01*
Y1712*
Y2285D02*
X23806Y2398D01*
X23950Y2285*
X23984Y7449D02*
X24412D01*
X23984*
Y8049D02*
X24412D01*
X23984*
X24111Y7749D02*
X24412D01*
X24111*
X24180Y2170D02*
X24752Y1712D01*
X24180Y2170*
Y2283*
Y2170*
X24323Y2398D02*
X24180Y2285D01*
X24323Y2398*
X24412Y7449D02*
Y8049D01*
Y7449*
X24584Y7534D02*
X24691Y7449D01*
X24584Y7534*
Y7706D02*
Y7534D01*
Y7706*
X24608Y2398D02*
X24323D01*
X24608*
X24691Y7449D02*
X24904D01*
X24691*
Y7706D02*
X24584D01*
X24691*
Y8049D02*
X24584Y7964D01*
X24691Y8049*
X24752Y1598D02*
X24180D01*
X24752*
Y1712D02*
Y1598D01*
Y1712*
Y2285D02*
X24608Y2398D01*
X24752Y2285*
X24904Y7449D02*
X25012Y7534D01*
X24904Y7449*
Y8049D02*
X24691D01*
X24904*
X25012Y7534D02*
Y7962D01*
Y7534*
Y7964D02*
X24904Y8049D01*
X25012Y7964*
X25186Y7449D02*
Y7706D01*
Y7449*
Y7620D02*
X25615D01*
X25186*
Y7707D02*
X25392Y8049D01*
X25186Y7707*
X25406Y8049D02*
X25392D01*
X25406*
X25553Y2398D02*
X25980D01*
X25553*
X25615Y7449D02*
Y7706D01*
Y7449*
Y7707D02*
X25406Y8049D01*
X25615Y7707*
X25636Y8199D02*
Y8799D01*
Y8199*
Y8499D02*
X26065D01*
X25636*
X25753Y1712D02*
X25838Y1598D01*
X25753Y1712*
Y2398D02*
Y1712D01*
Y2398*
X25788Y8049D02*
X26216D01*
X25788*
X25838Y1598D02*
X26009D01*
X25838*
X26001Y7449D02*
Y8049D01*
Y7449*
X26065Y8199D02*
Y8799D01*
Y8199*
X26124Y1712D02*
X26009Y1598D01*
X26124Y1712*
X26236Y8284D02*
X26343Y8199D01*
X26236Y8284*
Y8456D02*
Y8284D01*
Y8456*
X26343Y8199D02*
X26557D01*
X26343*
Y8456D02*
X26236D01*
X26343*
Y8799D02*
X26236Y8714D01*
X26343Y8799*
X26356Y1598D02*
Y1941D01*
Y1598*
Y1827D02*
X26928D01*
X26356*
Y1942D02*
X26630Y2398D01*
X26356Y1942*
X26389Y7449D02*
X26817D01*
X26389*
X26557Y8199D02*
X26665Y8284D01*
X26557Y8199*
Y8799D02*
X26343D01*
X26557*
X26649Y2398D02*
X26630D01*
X26649*
X26665Y8284D02*
Y8712D01*
Y8284*
Y8714D02*
X26557Y8799D01*
X26665Y8714*
X26817Y7449D02*
Y8049D01*
Y7449*
X26923Y8199D02*
X27180D01*
X26923*
Y8799D02*
X27180D01*
X26923*
X26928Y1598D02*
Y1941D01*
Y1598*
Y1942D02*
X26649Y2398D01*
X26928Y1942*
X26990Y7962D02*
Y7534D01*
Y7962*
X27097Y8049*
X26990Y7962*
X27051Y8199D02*
Y8799D01*
Y8199*
X27097Y7449D02*
X26990Y7534D01*
X27097Y7449*
Y8049D02*
X27310D01*
X27097*
X27158Y1598D02*
Y2398D01*
Y1598*
X27310Y7449D02*
X27097D01*
X27310*
Y8049D02*
X27418Y7962D01*
X27310Y8049*
X27418Y7534D02*
X27310Y7449D01*
X27418Y7534*
Y7962D02*
Y7534D01*
Y7962*
X27439Y8199D02*
Y8799D01*
Y8199*
Y8499D02*
X27867D01*
X27439*
X27443Y1941D02*
X27158Y2398D01*
X27443Y1941*
X27729Y2398*
X27443Y1941*
X27573Y8049D02*
X27778Y7449D01*
X27573Y8049*
X27729Y1598D02*
Y2398D01*
Y1598*
X27778Y7449D02*
X27795D01*
X27778*
X27867Y8199D02*
Y8799D01*
Y8199*
X28002Y8049D02*
X27795Y7449D01*
X28002Y8049*
G54D26*
X3000Y3000D02*
X4456Y1544D01*
X12044*
X13000Y2500*
Y1500D02*
Y2500D01*
X13690Y3190*
X16808*
X17881Y2117*
Y1500*
X18000*
X15000D02*
Y2500D01*
Y1500D02*
X14237Y737D01*
X3424*
X1846Y2315*
Y3920*
X2072Y4146*
X7854*
X9000Y3000*
X17000Y1500D02*
X15000D01*
X17000Y6500D02*
Y5386D01*
X18218Y4167*
X21864*
X22090Y4393*
Y6000*
X18000Y1500D02*
X18070D01*
X19570Y3000*
X18000Y6500D02*
X19645D01*
X18000Y8250D02*
Y8693D01*
Y9290*
X17290Y10000*
X17000*
X18000Y11750D02*
Y10710D01*
X17929Y10639*
X17003*
X16932Y10568*
X19570Y3000D02*
X21954D01*
X24000Y5046*
Y6750*
X20000Y8620D02*
X18860D01*
X18490Y8250*
X18000*
X20000Y11380D02*
X19073D01*
X18703Y11750*
X18000*
X24000Y13000D02*
Y11250D01*
X25000Y13000D02*
Y13371D01*
X24243Y14129*
Y16797*
X24040Y16999*
X23500*
Y17000*
X25000Y14500D02*
X25615Y13885D01*
X26176*
X25000Y19500D02*
X24177D01*
X22402Y17725*
Y16098*
X23500Y15000*
X26176Y13885D02*
Y10346D01*
X26063Y10233*
X23624*
X23050Y10807*
Y12335*
X23000Y12385*
Y13000*
X27500Y14000D02*
X28500D01*
X27500D02*
X26291D01*
X26176Y13885*
X27500Y16000D02*
X28500D01*
X28420Y3000D02*
Y8490D01*
X28500Y8570*
Y14000*
Y16000D02*
X29094D01*
X29564Y15529*
Y1997*
X28241Y674*
X17390*
X17119Y945*
Y1500*
X17000*
G54D27*
X1910Y15000D02*
X1050D01*
Y12085*
X1515Y11620*
X2000*
X2095*
X2885Y10830*
X2947*
X3461Y10317*
Y10123*
X2770Y15000D02*
X1910D01*
X2905Y12994D02*
X2224D01*
X2000Y12770*
Y12380*
X2905Y12994D02*
Y12434D01*
X3637Y11702*
X5421*
X5535Y11589*
X3000Y6380D02*
X3125D01*
X4203Y5302*
X7797*
X8875Y6380*
X9000*
X3000Y7620D02*
X3125D01*
X3000Y9000D02*
X2201Y8201D01*
Y7054*
X2875Y6380*
X3000*
X3125Y7620D02*
X3977Y6768D01*
Y6168*
X4398Y5746*
X6241*
X6875Y6380*
X7000*
X3461Y10123D02*
X3617D01*
X3811Y10317*
X3461Y10123D02*
X3267D01*
X1783Y8639*
Y5682*
X2755Y4710*
X9564*
X3811Y10317D02*
Y9619D01*
X3507Y9315*
Y8002*
X3125Y7620*
X3811Y12994D02*
Y13634D01*
X2770Y14675*
Y15000*
X4620Y17000D02*
X3918D01*
X2770Y15852*
Y15000*
X4620Y17000D02*
Y18000D01*
Y18485*
X5515Y19380*
X7000*
X4950Y15000D02*
Y14211D01*
X4716Y13977*
Y12994*
X4950Y15000D02*
X4090D01*
X4950D02*
X5490Y15540D01*
Y15569*
X5000Y6380D02*
X4875D01*
X4295Y6960*
Y8195*
X4500Y8400*
Y9401*
X5535Y10435*
Y11589*
X5000Y7620D02*
X7000D01*
X5000Y9000D02*
Y7620D01*
Y9000D02*
X5631Y9631D01*
X8369*
X9000Y9000*
X5380Y17000D02*
Y15810D01*
X5490Y15700*
Y15569*
X5380Y18000D02*
Y17000D01*
X5490Y15569D02*
X5977D01*
X6028Y15620*
X7000*
Y9000D02*
X7723Y8278D01*
X9424*
X9664Y8038*
Y6919*
X9125Y6380*
X9000*
X7000Y10620D02*
X7245D01*
Y10230*
X7453Y10022*
X8774*
X7000Y13000D02*
X5589Y11589D01*
X5535*
X7000Y15620D02*
X7591D01*
X7610Y15601*
X8151*
X7000Y18620D02*
Y16380D01*
Y19380D02*
X8054D01*
X8209Y19535*
X9788*
X10133Y19191*
X8000Y10620D02*
X8485D01*
X8668Y10803*
Y12073*
X7819Y12923*
Y14769*
X7706Y14883*
X7348*
X7000Y15230*
Y15620*
X8000Y11380D02*
Y11770D01*
X7550Y12220*
Y14000*
X7380*
X8000Y11380D02*
X7000D01*
X8620Y14000D02*
X9030D01*
X9553Y13477*
Y12263*
X11250Y10565*
X9000Y7620D02*
X8875D01*
X8255Y7000*
X5745*
X5125Y6380*
X5000*
X9000Y13000D02*
Y10249D01*
X8774Y10022*
X9000Y18000D02*
X9378Y18378D01*
X9719*
X10024Y18684*
Y19078*
X10133Y19186*
Y19191*
X9000Y19000D02*
X8620Y18620D01*
X7000*
X9564Y4710D02*
Y4835D01*
X9997Y5268*
Y8758*
X8774Y9982*
Y10022*
X10000Y11000D02*
Y10525D01*
X9980Y10505*
X9640*
X9620Y10485*
Y10000*
X10620Y17000D02*
X9000D01*
X11000Y4380D02*
X11095D01*
X11438Y4723*
Y4886*
X11551Y4999*
X11000Y5620D02*
X11095D01*
X11438Y5277*
Y5138*
X11551Y5025*
Y4999*
X11250Y10565D02*
X11363D01*
X11428Y10500*
X12000*
X11380Y17000D02*
X12500D01*
X12986Y16514*
Y16486*
X13000Y16500*
X11551Y4999D02*
X13900D01*
X14013Y5112*
Y5887*
X13900Y6000*
X12248*
X12135Y6113*
Y6308*
X11620Y6823*
Y7000*
Y8000D02*
Y7000D01*
Y8000D02*
Y8485D01*
X11735Y8600*
X12715*
X14380Y10265*
Y10887*
X14493Y11000*
X12000Y9000D02*
X11540D01*
X11000Y8460*
Y6380*
X12000Y9500D02*
X11540D01*
X10356Y8316*
Y3779*
X10515Y3620*
X11000*
X12000Y10000D02*
X10380D01*
X12000Y11000D02*
X11540D01*
X10151Y12389*
Y13611*
X8879Y14883*
X8232*
X8118Y14770*
Y13449*
X8232Y13336*
X8664*
X9000Y13000*
X12000Y11500D02*
X11540D01*
X11319Y11721*
Y11968*
X10790Y12497*
X12000Y12500D02*
X11540D01*
X11256Y12784*
Y13472*
X9000Y15727*
Y17000*
X12000Y14620D02*
Y13000D01*
Y15380D02*
X11380D01*
X11000Y15000*
X13000Y15500D02*
X13745Y14755D01*
X14507*
X14847Y14415*
Y11978*
X15325Y11500*
X16000*
X13000Y16500D02*
Y17460D01*
X12994Y17466*
Y18386*
X13500Y4500D02*
X12577D01*
X11697Y3620*
X11000*
X13500Y5500D02*
X12215D01*
X11485Y6230*
X11000*
Y6380*
X13500Y6500D02*
X14000Y7000D01*
Y8345*
X14655Y9000*
X16000*
X13500Y6500D02*
X13000Y7000D01*
X12380*
X13500Y7500D02*
X13000Y8000D01*
X12380*
X13620Y14000D02*
Y12160D01*
X12460Y11000*
X12000*
X14000Y16500D02*
Y16025D01*
X14025Y16000*
X14276*
X14500Y15776*
Y15252*
X15165Y14588*
Y12113*
X15278Y12000*
X16000*
X14380Y14000D02*
Y11113D01*
X14493Y11000*
X14500Y4500D02*
X13854Y3854D01*
X12680*
X11904Y3078*
X10270*
X9791Y3557*
Y4484*
X9564Y4710*
X14500Y5500D02*
Y4500D01*
Y5500D02*
Y6500D01*
Y7500D02*
Y6500D01*
X15000Y15500D02*
X15341Y15159D01*
Y14969*
X15649Y14662*
X15000Y16500D02*
Y18531D01*
X14340Y19191*
X10133*
X16000Y9500D02*
X14495D01*
X13500Y8505*
Y7500*
X16000Y10000D02*
X17000D01*
X16000Y10500D02*
X16864D01*
X16000Y11000D02*
X14493D01*
X16000D02*
X16460D01*
X17025Y11565*
Y13101*
X17138Y13214*
X18633*
X18746Y13327*
Y15281*
X19959Y16494*
X21184*
X16000Y12500D02*
X15540D01*
X15471Y12569*
Y13756*
X16620Y14905*
Y15000*
X16000Y13000D02*
Y13285D01*
X16620Y13905*
Y14000*
Y16000D02*
X14689D01*
X14500Y16189*
Y17663*
X14387Y17777*
X13613*
X13500Y17663*
Y16113*
X13387Y16000*
X12629*
X12516Y15887*
Y15211*
X12760Y14967*
Y12300*
X12460Y12000*
X12000*
X17380Y14000D02*
X18000D01*
X17380Y15000D02*
X18000D01*
X19955Y6029D02*
X21262Y7336D01*
Y7337*
X21500Y7575*
Y7750*
X19955Y6029D02*
X19926Y6000D01*
X19910*
X19955Y6029D02*
X19910Y6074D01*
Y6610*
X19759*
X19649Y6500*
X19645*
X20000Y9380D02*
X20485D01*
X20841Y9024*
Y7989*
X20615Y7762*
X19234*
X18636Y7164*
X14836*
X14500Y7500*
X20000Y10620D02*
X20771D01*
X20885Y10733*
X20000Y10620D02*
Y9380D01*
X20500Y16000D02*
X19758Y15258D01*
Y13926*
X19351Y13520*
Y13019*
X20885Y11485*
Y10733*
X20500Y17000D02*
X19511D01*
X18511Y16000*
X17380*
X21000Y12620D02*
X20515D01*
X20372Y12763*
Y12864*
X19921Y13315*
X21000Y13380D02*
X21095D01*
X21479Y13764*
Y16151*
X21184Y16445*
Y16494*
X21331Y18387D02*
Y16640D01*
X21184Y16494*
X21500Y10250D02*
Y10710D01*
X20998*
X20975Y10733*
X20885*
X22500Y7750D02*
Y7290D01*
X22435Y7225*
X22155*
X22090Y7160*
Y6000*
X22500Y10250D02*
Y10720D01*
X21000Y12220*
Y12620*
G54D28*
X8151Y15601D03*
X10790Y12497D03*
X11250Y10565D03*
X12994Y18386D03*
X15649Y14662D03*
X19921Y13315D03*
X21331Y18387D03*
G54D29*
X8151Y15601D03*
X10790Y12497D03*
X11250Y10565D03*
X12994Y18386D03*
X15649Y14662D03*
X19921Y13315D03*
X21331Y18387D03*
G54D70*
X18000Y8250D03*
Y11750D03*
G54D71*
X21500Y7750D03*
Y10250D03*
X22500Y7750D03*
Y10250D03*
M02*
