*
G04 Job   : F:\FRHA\RemoteDimmer\PCB\RemoteDimmerPic\PCB\RemoteDimmerPic.pcb*
G04 User  : PC-FRHA:frha*
G04 Layer : Placement Primary.gdo*
G04 Date  : Thu May 03 15:51:08 2001*
%ICAS*%
%MOIN*%
%FSLAX24Y24*%
%OFA0.0000B0.0000*%
G90*
%ADD12C,0.0050*%
%ADD10C,0.0080*%
%ADD11C,0.1100*%
G01*
G54D10*
X-15681Y46499D02*
Y46999D01*
Y46499*
X-15430Y46772D02*
X-15681D01*
X-15430*
X-15324Y46999D02*
X-15681D01*
X-15324*
X-15001Y46499D02*
Y46999D01*
Y46499*
X-14894D02*
X-15108D01*
X-14894*
Y46999D02*
X-15108D01*
X-14894*
X-14679Y46667D02*
X-14322D01*
X-14679*
X-14357Y46499D02*
Y46984D01*
Y46499*
Y46985D02*
X-14679Y46668D01*
X-14357Y46985*
X-13681Y46499D02*
Y46999D01*
Y46499*
X-13430Y46772D02*
X-13681D01*
X-13430*
X-13324Y46999D02*
X-13681D01*
X-13324*
X-13001Y46499D02*
Y46999D01*
Y46499*
X-12894D02*
X-13108D01*
X-12894*
Y46999D02*
X-13108D01*
X-12894*
X-12679Y46570D02*
X-12589Y46499D01*
X-12679Y46570*
Y46748D02*
X-12589Y46820D01*
X-12679Y46748*
Y46999D02*
Y46748D01*
Y46999*
X-12322*
X-12679*
X-12589Y46499D02*
X-12411D01*
X-12589*
Y46820D02*
X-12411D01*
X-12589*
X-12411Y46499D02*
X-12322Y46570D01*
X-12411Y46499*
X-12322Y46570D02*
Y46748D01*
Y46570*
Y46748D02*
X-12411Y46820D01*
X-12322Y46748*
X-11681Y46499D02*
Y46999D01*
Y46499*
X-11430Y46772D02*
X-11681D01*
X-11430*
X-11324Y46999D02*
X-11681D01*
X-11324*
X-11001Y46499D02*
Y46999D01*
Y46499*
X-10894D02*
X-11108D01*
X-10894*
Y46999D02*
X-11108D01*
X-10894*
X-10679Y46570D02*
Y46927D01*
Y46570*
Y46713D02*
X-10589Y46785D01*
X-10679Y46713*
Y46928D02*
X-10589Y46999D01*
X-10679Y46928*
X-10589Y46499D02*
X-10679Y46570D01*
X-10589Y46499*
Y46785D02*
X-10411D01*
X-10589*
Y46999D02*
X-10411D01*
X-10589*
X-10411Y46499D02*
X-10589D01*
X-10411*
Y46785D02*
X-10322Y46713D01*
X-10411Y46785*
Y46999D02*
X-10322Y46928D01*
X-10411Y46999*
X-10322Y46570D02*
X-10411Y46499D01*
X-10322Y46570*
Y46713D02*
Y46570D01*
Y46713*
X-1681Y45499D02*
Y45999D01*
Y45499*
X-1430Y45772D02*
X-1681D01*
X-1430*
X-1324Y45999D02*
X-1681D01*
X-1324*
X-1001Y45499D02*
Y45999D01*
Y45499*
X-894D02*
X-1108D01*
X-894*
Y45999D02*
X-1108D01*
X-894*
X-607Y45499D02*
X-393D01*
X-607*
X-500D02*
Y45999D01*
Y45499*
Y45999D02*
X-607Y45856D01*
X-500Y45999*
X0Y0D02*
X41000D01*
Y37500*
X0*
Y0*
X500Y16000D02*
Y20000D01*
X1319Y45499D02*
Y45999D01*
Y45499*
X1570Y45772D02*
X1319D01*
X1570*
X1676Y45999D02*
X1319D01*
X1676*
X1999Y45499D02*
Y45999D01*
Y45499*
X2106D02*
X1892D01*
X2106*
Y45999D02*
X1892D01*
X2106*
X2321Y45499D02*
X2678D01*
X2321*
Y45570D02*
Y45499D01*
Y45570*
Y45928D02*
X2411Y45999D01*
X2321Y45928*
X2411Y45999D02*
X2589D01*
X2411*
X2500Y2500D02*
X9500D01*
X2500D02*
Y3500D01*
X9500*
X2500Y8500D02*
Y9500D01*
Y8500D02*
X9500D01*
X2500Y9500D02*
X9500D01*
X2589Y45999D02*
X2678Y45928D01*
X2589Y45999*
X2678Y45856D02*
X2321Y45570D01*
X2678Y45856*
Y45927*
Y45856*
X3500Y16000D02*
Y20000D01*
X4489Y18161D02*
X4560Y18071D01*
X4489Y18161*
Y18339D02*
Y18161D01*
Y18339*
X4560Y18428D02*
X4489Y18339D01*
X4560Y18428*
X4561D02*
X4668D01*
X4561*
X4668D02*
X4739Y18340D01*
X4668Y18428*
X4739Y18340D02*
X4811Y18428D01*
X4739Y18340*
Y18248*
Y18340*
X4811Y18428D02*
X4918D01*
X4811*
X4917Y17570D02*
X4489D01*
X4917*
Y17927D02*
X4489D01*
X4917*
X4918D02*
X4989Y17838D01*
X4918Y17927*
Y18428D02*
X4989Y18339D01*
X4918Y18428*
X4989Y17660D02*
X4918Y17570D01*
X4989Y17660*
Y17838D02*
Y17660D01*
Y17838*
Y18161D02*
X4918Y18071D01*
X4989Y18161*
Y18339D02*
Y18161D01*
Y18339*
X5570Y2749D02*
Y3249D01*
Y2749*
Y2999D02*
X5838D01*
X5570*
Y3249D02*
X5838D01*
X5570*
Y8749D02*
Y9249D01*
Y8749*
Y8999D02*
X5838D01*
X5570*
Y9249D02*
X5838D01*
X5570*
X5928Y3070D02*
X5838Y2999D01*
X5928Y3070*
Y3177D02*
Y3070D01*
Y3177*
Y3178D02*
X5838Y3249D01*
X5928Y3178*
Y9070D02*
X5838Y8999D01*
X5928Y9070*
Y9177D02*
Y9070D01*
Y9177*
Y9178D02*
X5838Y9249D01*
X5928Y9178*
X6071Y2749D02*
X6428D01*
X6071*
Y2820D02*
Y2749D01*
Y2820*
Y3178D02*
X6161Y3249D01*
X6071Y3178*
X6161Y3249D02*
X6339D01*
X6161*
Y8749D02*
X6071Y8820D01*
X6161Y8749*
Y9249D02*
X6071Y9178D01*
X6161Y9249*
X6339Y3249D02*
X6428Y3178D01*
X6339Y3249*
Y8749D02*
X6161D01*
X6339*
Y9249D02*
X6161D01*
X6339*
X6340Y8999D02*
X6428Y8927D01*
X6340Y8999*
X6248*
X6340*
X6428Y3106D02*
X6071Y2820D01*
X6428Y3106*
Y3177*
Y3106*
Y8820D02*
X6339Y8749D01*
X6428Y8820*
Y8927D02*
Y8820D01*
Y8927*
Y9070D02*
X6340Y8999D01*
X6428Y9070*
Y9177D02*
Y9070D01*
Y9177*
Y9178D02*
X6339Y9249D01*
X6428Y9178*
X6750Y13750D02*
X7250D01*
X7000Y13500D02*
Y14000D01*
X7500Y16000D02*
X500D01*
X7500D02*
Y20000D01*
Y16500D02*
X7000Y16000D01*
X7500Y20000D02*
X500D01*
X7570Y15320D02*
Y15677D01*
Y15320*
Y15678D02*
X7660Y15749D01*
X7570Y15678*
X7660Y15249D02*
X7570Y15320D01*
X7660Y15249*
Y15749D02*
X7838D01*
X7660*
X7838Y15249D02*
X7660D01*
X7838*
Y15749D02*
X7927Y15678D01*
X7838Y15749*
X7927Y15320D02*
X7838Y15249D01*
X7927Y15320*
X8106Y15302D02*
X8160Y15249D01*
X8106Y15302*
Y15463D02*
Y15302D01*
Y15463*
Y15570D02*
Y15695D01*
Y15570*
Y15695D02*
X8160Y15749D01*
X8106Y15695*
X8124Y15517D02*
X8106Y15570D01*
X8124Y15517*
X8106Y15463*
X8124Y15517*
X8160Y15249D02*
X8356D01*
X8160*
Y15749D02*
X8356D01*
X8160*
X8356Y15249D02*
X8410Y15302D01*
X8356Y15249*
Y15749D02*
X8410Y15695D01*
X8356Y15749*
X8392Y15517D02*
X8124D01*
X8392*
X8410Y15302D02*
Y15463D01*
Y15302*
Y15463D02*
X8392Y15517D01*
X8410Y15463*
Y15570D02*
X8392Y15517D01*
X8410Y15570*
Y15695D02*
Y15570D01*
Y15695*
X8500Y2500D02*
Y3500D01*
Y8500D02*
Y9500D01*
X9000Y17000D02*
X7500D01*
X9000Y18000D02*
X7500D01*
X9000Y19000D02*
X7500D01*
X9498Y10749D02*
Y11249D01*
Y10749*
X9500Y2500D02*
Y3500D01*
Y8500D02*
Y9500D01*
X9676Y11249D02*
X9319D01*
X9676*
X9820Y10749D02*
Y11249D01*
Y10749*
Y10999D02*
X10088D01*
X9820*
Y11249D02*
X10088D01*
X9820*
X10000Y13000D02*
G03X8000Y15000I2000D01*
X6000Y13000J2000*
X8000Y11000I2000*
X10000Y13000J2000*
G01X10178Y11070D02*
X10088Y10999D01*
X10178Y11070*
Y11177D02*
Y11070D01*
Y11177*
Y11178D02*
X10088Y11249D01*
X10178Y11178*
X10393Y10749D02*
X10607D01*
X10393*
X10498Y15749D02*
Y16249D01*
Y15749*
X10500Y10749D02*
Y11249D01*
Y10749*
Y11249D02*
X10393Y11106D01*
X10500Y11249*
X10676Y16249D02*
X10319D01*
X10676*
X10820Y15749D02*
Y16249D01*
Y15749*
Y15999D02*
X11088D01*
X10820*
Y16249D02*
X11088D01*
X10820*
X11178Y16070D02*
X11088Y15999D01*
X11178Y16070*
Y16177D02*
Y16070D01*
Y16177*
Y16178D02*
X11088Y16249D01*
X11178Y16178*
X11321Y15917D02*
X11678D01*
X11321*
X11643Y15749D02*
Y16234D01*
Y15749*
Y16235D02*
X11321Y15918D01*
X11643Y16235*
X12500Y1000D02*
Y3000D01*
Y1000D02*
X15500D01*
X12500Y3000D02*
X15500D01*
X12500Y17000D02*
Y15000D01*
X12750D02*
X12500Y15250D01*
X13000Y4000D02*
Y8000D01*
Y7750D02*
X13250Y8000D01*
X13570Y1749D02*
Y2249D01*
Y1749*
Y1999D02*
X13838D01*
X13570*
Y2249D02*
X13838D01*
X13570*
X13739Y5570D02*
Y5838D01*
Y5570*
Y6161D02*
Y6339D01*
Y6161*
Y6339D02*
X13810Y6428D01*
X13739Y6339*
X13750Y15751D02*
X13857Y15894D01*
X13750Y15751*
Y16251D02*
Y15751D01*
Y16251*
X13810Y5928D02*
X13739Y5838D01*
X13810Y5928*
Y6071D02*
X13739Y6161D01*
X13810Y6071*
X13811Y5928D02*
X13918D01*
X13811*
X13857Y16251D02*
X13643D01*
X13857*
X13918Y5928D02*
X13989Y5838D01*
X13918Y5928*
X13928Y2070D02*
X13838Y1999D01*
X13928Y2070*
Y2177D02*
Y2070D01*
Y2177*
Y2178D02*
X13838Y2249D01*
X13928Y2178*
X13953Y6161D02*
Y6339D01*
Y6161*
Y6339D02*
X14025Y6428D01*
X13953Y6339*
X13989Y5570D02*
Y5838D01*
Y5570*
X14025Y6071D02*
X13953Y6161D01*
X14025Y6071*
Y6428D02*
X14168D01*
X14025*
X14071Y1820D02*
X14161Y1749D01*
X14071Y1820*
Y1998D02*
X14161Y2070D01*
X14071Y1998*
Y2249D02*
Y1998D01*
Y2249*
X14428*
X14071*
X14072Y15822D02*
X14162Y15751D01*
X14072Y15822*
Y15823D02*
Y15930D01*
Y15823*
Y15930D02*
X14162Y16001D01*
X14072Y15930*
X14161Y1749D02*
X14339D01*
X14161*
Y2070D02*
X14339D01*
X14161*
X14168Y6071D02*
X13811D01*
X14168*
Y6428D02*
X14239Y6339D01*
X14168Y6428*
X14239Y5570D02*
X13739D01*
X14239*
Y6161D02*
X14168Y6071D01*
X14239Y6161*
Y6339D02*
Y6161D01*
Y6339*
X14339Y1749D02*
X14428Y1820D01*
X14339Y1749*
X14428Y1820D02*
Y1998D01*
Y1820*
Y1998D02*
X14339Y2070D01*
X14428Y1998*
X14430Y15751D02*
X14162D01*
X14430*
Y16001D02*
X14162D01*
X14430*
Y16251D02*
Y15751D01*
Y16251*
X15000Y4000D02*
Y8000D01*
Y4000D02*
X13000D01*
X15000Y8000D02*
X13000D01*
X15250Y3000D02*
X15500Y2750D01*
Y1000D02*
Y3000D01*
Y15000D02*
X12500D01*
X15500Y17000D02*
Y15000D01*
Y17000D02*
X12500D01*
X16500Y2700D02*
X17500D01*
X16500Y5350D02*
X17500D01*
X16500D02*
Y2700D01*
X16761Y3410D02*
X16832Y3321D01*
X16761Y3410*
Y3588D02*
Y3410D01*
Y3588*
Y4000D02*
X17261D01*
X16761*
Y4107D02*
Y3893D01*
Y4107*
Y4680D02*
X17261D01*
X16761*
X16832Y3321D02*
X17010D01*
X16832*
Y3678D02*
X16761Y3588D01*
X16832Y3678*
X17000Y2700D02*
Y1500D01*
Y6500D02*
Y5350D01*
X17010Y3321D02*
X17082Y3410D01*
X17010Y3321*
Y3678D02*
X17082Y3588D01*
X17010Y3678*
X17011Y4412D02*
X16761Y4323D01*
X17011Y4412*
Y4680D02*
Y4412D01*
Y4680*
X17082Y3588D02*
Y3410D01*
Y3588*
Y4322D02*
X17011Y4412D01*
X17082Y4322*
X17189D02*
X17082D01*
X17189*
X17190D02*
X17261Y4412D01*
X17190Y4322*
X17261Y3678D02*
X17010D01*
X17261*
Y3321*
Y3678*
Y4000D02*
X17118Y4107D01*
X17261Y4000*
Y4680D02*
Y4412D01*
Y4680*
X17319Y45499D02*
Y45999D01*
Y45499*
X17500Y2700D02*
X18500D01*
X17500Y5350D02*
Y2700D01*
Y5350D02*
X18500D01*
X17500D02*
Y2700D01*
X17570Y45772D02*
X17319D01*
X17570*
X17676Y45999D02*
X17319D01*
X17676*
X17761Y3356D02*
X18247D01*
X17761*
Y4000D02*
X18261D01*
X17761*
Y4107D02*
Y3893D01*
Y4107*
Y4680D02*
X18261D01*
X17761*
X17930Y3678D02*
Y3321D01*
Y3678*
X17999Y45499D02*
Y45999D01*
Y45499*
X18000Y2700D02*
Y1500D01*
Y6500D02*
Y5350D01*
X18011Y4412D02*
X17761Y4323D01*
X18011Y4412*
Y4680D02*
Y4412D01*
Y4680*
X18082Y4322D02*
X18011Y4412D01*
X18082Y4322*
X18106Y45499D02*
X17892D01*
X18106*
Y45999D02*
X17892D01*
X18106*
X18189Y4322D02*
X18082D01*
X18189*
X18190D02*
X18261Y4412D01*
X18190Y4322*
X18247Y3356D02*
X17930Y3678D01*
X18247Y3356*
X18261Y4000D02*
X18118Y4107D01*
X18261Y4000*
Y4680D02*
Y4412D01*
Y4680*
X18411Y45499D02*
X18321Y45570D01*
X18411Y45499*
Y45999D02*
X18321Y45928D01*
X18411Y45999*
X18498Y14749D02*
Y15249D01*
Y14749*
Y15749D02*
Y16249D01*
Y15749*
X18500Y5350D02*
Y2700D01*
X18589Y45499D02*
X18411D01*
X18589*
Y45999D02*
X18411D01*
X18589*
X18590Y45749D02*
X18678Y45677D01*
X18590Y45749*
X18498*
X18590*
X18676Y15249D02*
X18319D01*
X18676*
Y16249D02*
X18319D01*
X18676*
X18678Y45570D02*
X18589Y45499D01*
X18678Y45570*
Y45677D02*
Y45570D01*
Y45677*
Y45820D02*
X18590Y45749D01*
X18678Y45820*
Y45927D02*
Y45820D01*
Y45927*
Y45928D02*
X18589Y45999D01*
X18678Y45928*
X18783Y933D02*
Y5067D01*
Y933D02*
X29216D01*
X18783Y5067D02*
X29216D01*
X18820Y14749D02*
Y15249D01*
Y14749*
Y14999D02*
X19088D01*
X18820*
Y15249D02*
X19088D01*
X18820*
Y15749D02*
Y16249D01*
Y15749*
Y15999D02*
X19088D01*
X18820*
Y16249D02*
X19088D01*
X18820*
X19178Y15070D02*
X19088Y14999D01*
X19178Y15070*
Y15177D02*
Y15070D01*
Y15177*
Y15178D02*
X19088Y15249D01*
X19178Y15178*
Y16070D02*
X19088Y15999D01*
X19178Y16070*
Y16177D02*
Y16070D01*
Y16177*
Y16178D02*
X19088Y16249D01*
X19178Y16178*
X19250Y6000D02*
X23000D01*
X19250D02*
Y12000D01*
X23000*
X19321Y15749D02*
X19678D01*
X19321*
Y15820D02*
Y15749D01*
Y15820*
Y16178D02*
X19411Y16249D01*
X19321Y16178*
X19411Y14749D02*
X19321Y14820D01*
X19411Y14749*
Y15249D02*
X19321Y15178D01*
X19411Y15249*
Y16249D02*
X19589D01*
X19411*
X19589Y14749D02*
X19411D01*
X19589*
Y15249D02*
X19411D01*
X19589*
Y16249D02*
X19678Y16178D01*
X19589Y16249*
X19590Y14999D02*
X19678Y14927D01*
X19590Y14999*
X19498*
X19590*
X19678Y14820D02*
X19589Y14749D01*
X19678Y14820*
Y14927D02*
Y14820D01*
Y14927*
Y15070D02*
X19590Y14999D01*
X19678Y15070*
Y15177D02*
Y15070D01*
Y15177*
Y15178D02*
X19589Y15249D01*
X19678Y15178*
Y16106D02*
Y16177D01*
Y16106*
X19321Y15820*
X19678Y16106*
X19750Y6500D02*
X28250D01*
X19750Y11500D02*
Y6500D01*
X21000Y14500D02*
Y17500D01*
Y14500D02*
X23000D01*
X21000Y17500D02*
X21500D01*
G03X22000Y17000I500*
X22500Y17500J500*
G01X21739Y16071D02*
X21990D01*
X21739*
Y16428*
Y16071*
X21918Y16161D02*
Y16339D01*
Y16161*
X21950Y12250D02*
X26050D01*
X21950D02*
Y14250D01*
Y13750D02*
X26050D01*
X21950Y14250D02*
X26050D01*
X21990Y16071D02*
X21918Y16161D01*
X21990Y16071*
Y16428D02*
X21918Y16339D01*
X21990Y16428*
X22167Y15570D02*
X21739D01*
X22167*
Y15927D02*
X21739D01*
X22167*
X22168D02*
X22239Y15838D01*
X22168Y15927*
Y16071D02*
X22239Y16161D01*
X22168Y16071*
Y16428D02*
X21990D01*
X22168*
X22239Y15660D02*
X22168Y15570D01*
X22239Y15660*
Y15838D02*
Y15660D01*
Y15838*
Y16161D02*
Y16339D01*
Y16161*
Y16339D02*
X22168Y16428D01*
X22239Y16339*
X22500Y17500D02*
X23000D01*
Y6000D02*
Y6500D01*
Y12000D02*
Y11500D01*
Y14500D02*
Y17500D01*
X23570Y2820D02*
Y3177D01*
Y2820*
Y3178D02*
X23660Y3249D01*
X23570Y3178*
Y8749D02*
Y9249D01*
Y8749*
Y14570D02*
X23660Y14499D01*
X23570Y14570*
Y14927D02*
Y14570D01*
Y14927*
X23660Y2749D02*
X23570Y2820D01*
X23660Y2749*
Y3249D02*
X23838D01*
X23660*
Y14499D02*
X23838D01*
X23660*
Y14999D02*
X23570Y14927D01*
X23660Y14999*
X23838Y2749D02*
X23660D01*
X23838*
Y3249D02*
X23927Y3178D01*
X23838Y3249*
Y14499D02*
X23927Y14570D01*
X23838Y14499*
Y14999D02*
X23660D01*
X23838*
X23927Y2820D02*
X23838Y2749D01*
X23927Y2820*
Y8749D02*
X23570D01*
X23927*
Y14499D02*
X23822Y14626D01*
X23927Y14499*
Y14927D02*
Y14570D01*
Y14927*
X23838Y14999*
X23927Y14927*
X24142Y2749D02*
X24356D01*
X24142*
X24143Y8749D02*
X24357D01*
X24143*
Y14499D02*
X24357D01*
X24143*
X24249Y2749D02*
Y3249D01*
Y2749*
Y3249D02*
X24142Y3106D01*
X24249Y3249*
X24250Y8749D02*
Y9249D01*
Y8749*
Y9249D02*
X24143Y9106D01*
X24250Y9249*
Y14499D02*
Y14999D01*
Y14499*
Y14999D02*
X24143Y14856D01*
X24250Y14999*
X24500Y15650D02*
Y18300D01*
X24739Y16319D02*
Y16587D01*
Y16319*
Y16999D02*
X24882Y16892D01*
X24739Y16999*
Y17411D02*
X24810Y17321D01*
X24739Y17411*
Y17589D02*
Y17411D01*
Y17589*
X24810Y16677D02*
X24739Y16587D01*
X24810Y16677*
Y17678D02*
X24739Y17589D01*
X24810Y17678*
X24811Y16677D02*
X24918D01*
X24811*
Y17678D02*
X24918D01*
X24811*
X24918Y16677D02*
X24989Y16587D01*
X24918Y16677*
Y17678D02*
X24989Y17590D01*
X24918Y17678*
X24989Y16319D02*
Y16587D01*
Y16319*
Y16587D02*
X25239Y16676D01*
X24989Y16587*
Y17590D02*
X25061Y17678D01*
X24989Y17590*
Y17498*
Y17590*
X25000Y14500D02*
Y15650D01*
Y18300D02*
Y19500D01*
X25061Y17678D02*
X25168D01*
X25061*
X25168D02*
X25239Y17589D01*
X25168Y17678*
X25239Y16319D02*
X24739D01*
X25239*
Y16892D02*
Y17106D01*
Y16892*
Y16999D02*
X24739D01*
X25239*
Y17411D02*
X25168Y17321D01*
X25239Y17411*
Y17589D02*
Y17411D01*
Y17589*
X25250Y6000D02*
Y6500D01*
Y11500D02*
Y12000D01*
X28750*
X25500Y15650D02*
X24500D01*
X25500D02*
Y18300D01*
X24500*
X26050Y12250D02*
Y14250D01*
X27000Y13500D02*
Y16500D01*
Y16250D02*
X27250Y16500D01*
X27739Y14570D02*
Y14838D01*
Y14570*
X27753Y15393D02*
X28070Y15071D01*
X27753Y15393*
X27810Y14928D02*
X27739Y14838D01*
X27810Y14928*
X27811D02*
X27918D01*
X27811*
X27918D02*
X27989Y14838D01*
X27918Y14928*
X27989Y14570D02*
Y14838D01*
Y14570*
X28071Y15071D02*
Y15428D01*
Y15071*
X28239Y14570D02*
X27739D01*
X28239*
Y15393D02*
X27753D01*
X28239*
X28250Y6500D02*
Y11500D01*
X19750*
X28750Y6000D02*
X25250D01*
X28750Y12000D02*
Y6000D01*
X29000Y13500D02*
Y16500D01*
Y13500D02*
X27000D01*
X29000Y16500D02*
X27000D01*
X29216Y933D02*
Y5067D01*
G54D11*
X2000Y18000D03*
G54D12*
X-14900Y46000D02*
G03X-15000Y46100I100D01*
X-15100Y46000J100*
X-15000Y45900I100*
X-14900Y46000J100*
G01X-12900D02*
G03X-13000Y46100I100D01*
X-13100Y46000J100*
X-13000Y45900I100*
X-12900Y46000J100*
G01X-10900D02*
G03X-11000Y46100I100D01*
X-11100Y46000J100*
X-11000Y45900I100*
X-10900Y46000J100*
G01X-900Y45000D02*
G03X-1000Y45100I100D01*
X-1100Y45000J100*
X-1000Y44900I100*
X-900Y45000J100*
G01X2100D02*
G03X2000Y45100I100D01*
X1900Y45000J100*
X2000Y44900I100*
X2100Y45000J100*
G01X10330Y10000D02*
G03X10000Y10330I330D01*
X9670Y10000J330*
X10000Y9670I330*
X10330Y10000J330*
G01X11330Y15000D02*
G03X11000Y15330I330D01*
X10670Y15000J330*
X11000Y14670I330*
X11330Y15000J330*
G01X18100Y45000D02*
G03X18000Y45100I100D01*
X17900Y45000J100*
X18000Y44900I100*
X18100Y45000J100*
G01X19330Y14000D02*
G03X19000Y14330I330D01*
X18670Y14000J330*
X19000Y13670I330*
X19330Y14000J330*
G01Y15000D02*
G03X19000Y15330I330D01*
X18670Y15000J330*
X19000Y14670I330*
X19330Y15000J330*
M02*
