*
G04 Job   : F:\FRHA\RemoteDimmer\PCB\RemoteDimmerPic\PCB\RemoteDimmerPic.pcb*
G04 User  : PC-FRHA:frha*
G04 Layer : Placement Secondary.gdo*
G04 Date  : Thu May 03 15:51:07 2001*
%ICAS*%
%MOIN*%
%FSLAX24Y24*%
%OFA0.0000B0.0000*%
G90*
%ADD10C,0.0080*%
%ADD11C,0.1100*%
G01*
G54D10*
X41000D01*
Y37500*
X0*
Y0*
X1550Y14800D02*
Y15150D01*
Y15200*
X1700*
X1600Y11200D02*
X2400D01*
X1600Y12800D02*
Y11200D01*
X1700Y13700D02*
Y16300D01*
Y14800D02*
X1550D01*
X1700Y16300D02*
X4000D01*
X1809Y11728D02*
X1866Y11656D01*
X1809Y11728*
Y11870D02*
Y11728D01*
Y11870*
Y12056D02*
Y12342D01*
Y12056*
X1866Y11656D02*
X2151D01*
X1866*
Y11942D02*
X1809Y11870D01*
X1866Y11942*
Y12056D02*
X1809D01*
X1866*
X2059Y6656D02*
X2459D01*
X2059*
Y6870D02*
Y6656D01*
Y6870*
Y7129D02*
Y7271D01*
Y7129*
Y7271D02*
X2116Y7342D01*
X2059Y7271*
X2094Y12342D02*
X1866Y12056D01*
X2094Y12342*
X2151*
X2094*
X2116Y6942D02*
X2059Y6870D01*
X2116Y6942*
Y7057D02*
X2059Y7129D01*
X2116Y7057*
Y7342D02*
X2258D01*
X2116*
Y6942D02*
X2402D01*
X2116*
X2152Y11656D02*
X2209Y11728D01*
X2152Y11656*
Y12056D02*
X2209Y12128D01*
X2152Y12056*
X2209Y11728D02*
Y11870D01*
Y11728*
Y11870D02*
X2152Y11942D01*
X2209Y11870*
Y12128D02*
Y12270D01*
Y12128*
Y12270D02*
X2152Y12342D01*
X2209Y12270*
X2258Y7057D02*
X2316Y7129D01*
X2258Y7057*
Y7342D02*
X2316Y7271D01*
X2258Y7342*
X2316Y7129D02*
Y7271D01*
Y7129*
X2400Y11200D02*
Y12800D01*
X1600*
X2459Y6656D02*
Y6870D01*
Y6656*
Y6870D02*
X2401Y6942D01*
X2459Y6870*
Y7057D02*
X2258D01*
X2459*
Y7342*
Y7057*
X2461Y10905D02*
X5161D01*
X2461Y12405D02*
Y10905D01*
X2573Y13070D02*
X2662Y12999D01*
X2573Y13070*
Y13285D02*
X2662Y13213D01*
X2573Y13285*
Y13427D02*
Y13070D01*
Y13427*
X2662Y12999D02*
X2840D01*
X2662*
Y13213D02*
X2840D01*
X2662*
Y13499D02*
X2573Y13427D01*
X2662Y13499*
X2700Y6270D02*
X3300D01*
X2700D02*
Y7730D01*
Y6470D02*
X3300D01*
X2700Y6800D02*
X3300D01*
X2700Y7530D02*
X3300D01*
X2700Y7730D02*
X3300D01*
X2711Y12405D02*
Y13105D01*
X3111*
X2840Y12999D02*
X2930Y13070D01*
X2840Y12999*
Y13213D02*
X2930Y13285D01*
X2840Y13213*
Y13499D02*
X2662D01*
X2840*
X2930Y13285D02*
Y13427D01*
Y13285*
Y13428D02*
X2840Y13499D01*
X2930Y13428*
X3073Y13070D02*
X3162Y12999D01*
X3073Y13070*
X3111Y12405D02*
Y13105D01*
X3162Y12999D02*
X3340D01*
X3162*
Y13499D02*
X3073Y13428D01*
X3162Y13499*
X3211Y10205D02*
Y10905D01*
Y10205D02*
X4411D01*
X3300Y6270D02*
Y7730D01*
X3340Y12999D02*
X3430Y13070D01*
X3340Y12999*
Y13499D02*
X3162D01*
X3340*
X3381Y11834D02*
Y11406D01*
Y11834*
X3430Y13070D02*
Y13427D01*
Y13070*
Y13428D02*
X3340Y13499D01*
X3430Y13428*
X3471Y11906D02*
X3381Y11835D01*
X3471Y11906*
X3611Y12405D02*
Y13105D01*
X4011*
X3649Y11906D02*
X3471D01*
X3649*
X3738Y11834D02*
Y11406D01*
Y11834*
Y11835D02*
X3649Y11906D01*
X3738Y11835*
X3882Y11477D02*
X3972Y11406D01*
X3882Y11477*
Y11835D02*
Y11906D01*
Y11835*
Y11906D02*
X4239D01*
X3882*
X3972Y11406D02*
X4150D01*
X3972*
X4000Y13700D02*
X1700D01*
X4000Y16300D02*
X4300Y16000D01*
X4011Y12405D02*
Y13105D01*
X4059Y6656D02*
X4459D01*
X4059*
Y6870D02*
Y6656D01*
Y6870*
Y7314D02*
X4448D01*
X4059*
X4116Y6942D02*
X4059Y6870D01*
X4116Y6942*
X4402*
X4116*
X4150Y11406D02*
X4239Y11477D01*
X4150Y11406*
X4193Y7057D02*
Y7342D01*
Y7057*
X4200Y16600D02*
Y17400D01*
X5800*
X4200Y17600D02*
X5800D01*
X4200Y18400D02*
Y17600D01*
X4239Y11549D02*
X3882Y11835D01*
X4239Y11549*
Y11478*
Y11549*
X4240Y15000D02*
G03X3000Y16240I1240D01*
X1760Y15000J1240*
X3000Y13760I1240*
X4240Y15000J1240*
G01X4300Y14000D02*
X4000Y13700D01*
X4300Y14800D02*
X4450D01*
X4300Y16000D02*
Y14000D01*
X4411Y10205D02*
Y10905D01*
X4448Y7314D02*
X4194Y7057D01*
X4448Y7314*
X4450Y14800D02*
Y15200D01*
X4300*
X4455Y16801D02*
X4670D01*
X4455*
Y17001D02*
X4670D01*
X4455*
Y17201D02*
Y16801D01*
Y17201*
X4459Y6656D02*
Y6870D01*
Y6656*
Y6870D02*
X4401Y6942D01*
X4459Y6870*
X4511Y12405D02*
Y13105D01*
X4911*
X4658Y18199D02*
X4944D01*
X4658*
X4670Y17001D02*
X4741Y17201D01*
X4670Y17001*
X4700Y6270D02*
Y7730D01*
Y6270D02*
X5300D01*
X4700Y6470D02*
X5300D01*
X4700Y6800D02*
X5300D01*
X4700Y7530D02*
X5300D01*
X4700Y7730D02*
X5300D01*
X4742Y16858D02*
X4670Y16801D01*
X4742Y16858*
Y16944*
Y16858*
Y16944D02*
X4670Y17001D01*
X4742Y16944*
X4856Y16858D02*
X4928Y16801D01*
X4856Y16858*
Y17144D02*
Y17201D01*
Y17144*
Y17201D02*
X5142D01*
X4856*
X4886Y17799D02*
X4658Y18199D01*
X4886Y17799*
X4911Y12405D02*
Y13105D01*
X4928Y16801D02*
X5070D01*
X4928*
X5058Y17856D02*
X5130Y17799D01*
X5058Y17856*
X5070Y16801D02*
X5142Y16858D01*
X5070Y16801*
X5130Y17799D02*
X5272D01*
X5130*
Y18199D02*
X5058Y18142D01*
X5130Y18199*
X5142Y16915D02*
X4856Y17144D01*
X5142Y16915*
Y16858*
Y16915*
X5161Y10905D02*
Y12405D01*
X2461*
X5272Y17799D02*
X5344Y17856D01*
X5272Y17799*
Y18199D02*
X5130D01*
X5272*
X5300Y6270D02*
Y7730D01*
X5314Y17201D02*
X5486D01*
X5314*
X5344Y17856D02*
Y18142D01*
Y17856*
Y18142D02*
X5272Y18199D01*
X5344Y18142*
X5400Y16801D02*
X5314Y16915D01*
X5400Y16801*
Y17201D02*
Y16801D01*
Y17201*
X5800Y16600D02*
X4200D01*
X5800Y17400D02*
Y16600D01*
Y17600D02*
Y18400D01*
X4200*
X6600Y15200D02*
Y16800D01*
X7400*
X6600Y18200D02*
X7400D01*
X6600Y19800D02*
Y18200D01*
X6700Y7730D02*
Y6270D01*
X6791Y15800D02*
X6906Y15886D01*
X6791Y15800*
Y16344D02*
Y16130D01*
Y16344*
Y19129D02*
X6848Y19058D01*
X6791Y19129*
Y19271D02*
Y19129D01*
Y19271*
X6802Y18686D02*
X7056Y18943D01*
X6802Y18686*
X6848Y16058D02*
X6791Y16130D01*
X6848Y16058*
Y19343D02*
X6791Y19271D01*
X6848Y19343*
X6849Y16058D02*
X6934D01*
X6849*
X6934D02*
X6991Y16130D01*
X6934Y16058*
X6991Y16130D02*
X7191Y16058D01*
X6991Y16130*
Y16344D02*
Y16130D01*
Y16344*
X7056Y18943D02*
Y18658D01*
Y18943*
X7134Y19058D02*
X7191Y19129D01*
X7134Y19058*
Y19343D02*
X6849D01*
X7134*
X7191Y15800D02*
X6791D01*
X7191*
Y15886D02*
Y15714D01*
Y15886*
Y16344D02*
X6791D01*
X7191*
Y18686D02*
X6802D01*
X7191*
Y19129D02*
Y19271D01*
Y19129*
Y19271D02*
X7134Y19343D01*
X7191Y19271*
X7300Y6270D02*
X6700D01*
X7300Y6470D02*
X6700D01*
X7300Y7200D02*
X6700D01*
X7300Y7530D02*
X6700D01*
X7300Y7730D02*
X6700D01*
X7300D02*
Y6270D01*
X7400Y15200D02*
X6600D01*
X7400Y16800D02*
Y15200D01*
Y18200D02*
Y19800D01*
X6600*
X7541Y6729D02*
Y6871D01*
Y6729*
Y6871D02*
X7598Y6943D01*
X7541Y6871*
Y7130D02*
X7599Y7058D01*
X7541Y7130*
Y7344D02*
Y7130D01*
Y7344*
X7598Y6658D02*
X7541Y6729D01*
X7598Y6658*
X7599D02*
X7684D01*
X7599*
X7684D02*
X7741Y6728D01*
X7684Y6658*
X7741Y6728D02*
X7798Y6658D01*
X7741Y6728*
Y6801*
Y6728*
X7798Y6658D02*
X7884D01*
X7798*
X7884Y7058D02*
X7598D01*
X7884*
Y6658D02*
X7941Y6729D01*
X7884Y6658*
Y7058D02*
X7941Y7130D01*
X7884Y7058*
X7941Y6729D02*
Y6871D01*
Y6729*
Y6871D02*
X7884Y6943D01*
X7941Y6871*
Y7130D02*
Y7344D01*
Y7130*
Y7344D02*
X7541D01*
X7941*
X8700Y7730D02*
Y6270D01*
X9200Y10600D02*
Y11400D01*
X10800*
X9300Y6270D02*
X8700D01*
X9300Y6470D02*
X8700D01*
X9300Y7200D02*
X8700D01*
X9300Y7530D02*
X8700D01*
X9300Y7730D02*
X8700D01*
X9300D02*
Y6270D01*
X9455Y10801D02*
X9670D01*
X9455*
Y11001D02*
X9670D01*
X9455*
Y11201D02*
Y10801D01*
Y11201*
X9541Y6729D02*
X9598Y6658D01*
X9541Y6729*
Y6871D02*
Y6729D01*
Y6871*
Y7130D02*
X9599Y7058D01*
X9541Y7130*
Y7344D02*
Y7130D01*
Y7344*
X9598Y6943D02*
X9541Y6871D01*
X9598Y6943*
X9656Y6658D02*
X9599D01*
X9656*
X9884Y6943*
X9656Y6658*
X9670Y11001D02*
X9741Y11201D01*
X9670Y11001*
X9742Y10858D02*
X9670Y10801D01*
X9742Y10858*
Y10944*
Y10858*
Y10944D02*
X9670Y11001D01*
X9742Y10944*
X9884Y7058D02*
X9598D01*
X9884*
Y6943D02*
X9941D01*
X9884*
Y7058D02*
X9941Y7130D01*
X9884Y7058*
X9914Y11201D02*
X10085D01*
X9914*
X9941Y6943D02*
Y6658D01*
Y6943*
Y7130D02*
Y7344D01*
Y7130*
Y7344D02*
X9541D01*
X9941*
X9999Y10801D02*
X9914Y10915D01*
X9999Y10801*
Y11201D02*
Y10801D01*
Y11201*
X10200Y16600D02*
Y17400D01*
X11800*
X10314Y11201D02*
X10542Y10801D01*
X10314Y11201*
X10455Y16801D02*
X10670D01*
X10455*
Y17001D02*
X10670D01*
X10455*
Y17201D02*
Y16801D01*
Y17201*
X10542Y10801D02*
X10257D01*
X10542*
X10600Y3200D02*
Y4800D01*
X11400*
X10600Y5200D02*
Y6800D01*
X11400*
X10670Y17001D02*
X10741Y17201D01*
X10670Y17001*
X10742Y16858D02*
X10670Y16801D01*
X10742Y16858*
Y16944*
Y16858*
Y16944D02*
X10670Y17001D01*
X10742Y16944*
X10791Y5729D02*
X10848Y5658D01*
X10791Y5729*
Y5871D02*
Y5729D01*
Y5871*
Y6344D02*
Y6130D01*
Y6344*
X10800Y10600D02*
X9200D01*
X10800Y11400D02*
Y10600D01*
X10809Y3656D02*
X11209D01*
X10809*
Y4129D02*
Y4286D01*
Y4129*
Y4286D02*
X10852Y4328D01*
X10809Y4286*
X10848Y5943D02*
X10791Y5871D01*
X10848Y5943*
Y6058D02*
X10791Y6130D01*
X10848Y6058*
X10849D02*
X10934D01*
X10849*
X10852Y4086D02*
X10809Y4129D01*
X10852Y4086*
Y4328D02*
X10980D01*
X10852*
X10914Y17201D02*
X11085D01*
X10914*
X10934Y6058D02*
X10991Y6130D01*
X10934Y6058*
X10962Y5729D02*
X11020Y5658D01*
X10962Y5729*
Y5871D02*
Y5729D01*
Y5871*
X10980Y4086D02*
X10852D01*
X10980*
Y4328D02*
X11023Y4314D01*
X10980Y4328*
X10991Y6130D02*
X11191Y6058D01*
X10991Y6130*
Y6344D02*
Y6130D01*
Y6344*
X10999Y16801D02*
X10914Y16915D01*
X10999Y16801*
Y17201D02*
Y16801D01*
Y17201*
X11009Y3656D02*
Y3870D01*
Y3656*
Y3870D02*
X10809Y3942D01*
X11009Y3870*
X11020Y5658D02*
X11134D01*
X11020*
Y5943D02*
X10962Y5871D01*
X11020Y5943*
X11023Y4100D02*
X11066Y4086D01*
X11023Y4100*
X10980Y4086*
X11023Y4100*
Y4314D02*
Y4100D01*
Y4314*
X11066Y3942D02*
X11009Y3870D01*
X11066Y3942*
Y4086D02*
X11166D01*
X11066*
Y4328D02*
X11023Y4314D01*
X11066Y4328*
X11134Y5658D02*
X11191Y5729D01*
X11134Y5658*
Y5943D02*
X10849D01*
X11134*
X11151Y3942D02*
X11066D01*
X11151*
X11152D02*
X11209Y3870D01*
X11152Y3942*
X11166Y4086D02*
X11209Y4129D01*
X11166Y4086*
Y4328D02*
X11066D01*
X11166*
X11191Y5729D02*
Y5871D01*
Y5729*
Y5871D02*
X11134Y5943D01*
X11191Y5871*
Y6344D02*
X10791D01*
X11191*
X11200Y6600D02*
Y7400D01*
X12800*
X11200Y7600D02*
Y8400D01*
X12800*
X11209Y3656D02*
Y3870D01*
Y3656*
Y4129D02*
Y4286D01*
Y4129*
Y4286D02*
X11166Y4328D01*
X11209Y4286*
X11257Y16858D02*
X11329Y16801D01*
X11257Y16858*
Y17144D02*
Y16858D01*
Y17144*
X11294Y17172D02*
X11507Y16830D01*
X11294Y17172*
X11329Y16801D02*
X11471D01*
X11329*
Y17201D02*
X11257Y17144D01*
X11329Y17201*
X11400Y3200D02*
X10600D01*
X11400Y4800D02*
Y3200D01*
Y5200D02*
X10600D01*
X11400Y6800D02*
Y5200D01*
X11458Y7856D02*
X11529Y7799D01*
X11458Y7856*
Y7970D02*
Y7856D01*
Y7970*
X11471Y16801D02*
X11542Y16858D01*
X11471Y16801*
Y17201D02*
X11329D01*
X11471*
X11529Y7799D02*
X11671D01*
X11529*
Y8028D02*
X11458Y7970D01*
X11529Y8028*
Y8199D02*
X11458Y8142D01*
X11529Y8199*
X11542Y16858D02*
Y17144D01*
Y16858*
Y17144D02*
X11471Y17201D01*
X11542Y17144*
X11600Y14200D02*
Y15800D01*
X12400*
X11671Y7799D02*
X11743Y7856D01*
X11671Y7799*
Y8028D02*
X11529D01*
X11671*
Y8199D02*
X11529D01*
X11671*
X11686Y6799D02*
Y7187D01*
Y6799*
Y7188D02*
X11943Y6934D01*
X11686Y7188*
X11743Y7856D02*
Y8142D01*
Y7856*
Y7970D02*
X11671Y8028D01*
X11743Y7970*
Y8142D02*
X11671Y8199D01*
X11743Y8142*
X11791Y14514D02*
X11834Y14470D01*
X11791Y14514*
Y14670D02*
Y14514D01*
Y14670*
Y15000D02*
X11906Y15086D01*
X11791Y15000*
Y15544D02*
Y15330D01*
Y15544*
X11800Y16600D02*
X10200D01*
X11800Y17400D02*
Y16600D01*
X11834Y14470D02*
X11934D01*
X11834*
Y14714D02*
X11791Y14670D01*
X11834Y14714*
X11848Y15258D02*
X11791Y15330D01*
X11848Y15258*
X11849D02*
X11934D01*
X11849*
X11934Y14470D02*
X11977Y14485D01*
X11934Y14470*
Y14714D02*
X11834D01*
X11934*
Y15258D02*
X11991Y15330D01*
X11934Y15258*
X11943Y6934D02*
X11658D01*
X11943*
X11977Y14485D02*
Y14699D01*
Y14485*
Y14699D02*
X11934Y14714D01*
X11977Y14699*
X12020Y14714*
X11977Y14699*
X11991Y15330D02*
X12191Y15258D01*
X11991Y15330*
Y15544D02*
Y15330D01*
Y15544*
X12001Y7799D02*
Y8199D01*
Y7799*
Y8199D02*
X12086Y8085D01*
X12001Y8199*
X12020Y14470D02*
X11977Y14485D01*
X12020Y14470*
Y14714D02*
X12148D01*
X12020*
X12058Y7056D02*
X12130Y6999D01*
X12058Y7056*
Y7142D02*
Y7056D01*
Y7142*
X12130Y7199*
X12058Y7142*
X12086Y7799D02*
X11915D01*
X12086*
X12130Y6999D02*
X12058Y6799D01*
X12130Y6999*
X12148Y14470D02*
X12020D01*
X12148*
Y14714D02*
X12191Y14670D01*
X12148Y14714*
X12191Y14514D02*
X12148Y14470D01*
X12191Y14514*
Y14670D02*
Y14514D01*
Y14670*
Y15000D02*
X11791D01*
X12191*
Y15086D02*
Y14914D01*
Y15086*
Y15544D02*
X11791D01*
X12191*
X12258Y8056D02*
X12330Y7999D01*
X12258Y8056*
Y8142D02*
Y8056D01*
Y8142*
X12330Y8199*
X12258Y8142*
X12330Y7999D02*
X12259Y7799D01*
X12330Y7999*
X12344Y6799D02*
Y7199D01*
Y6799*
Y6999D02*
X12130D01*
X12344*
Y7199D02*
X12130D01*
X12344*
X12400Y14200D02*
X11600D01*
X12400Y15800D02*
Y14200D01*
X12500Y8650D02*
X13750D01*
X12500D02*
Y13350D01*
X15500*
X12545Y7799D02*
Y8199D01*
Y7799*
Y7999D02*
X12330D01*
X12545*
Y8199D02*
X12330D01*
X12545*
X12800Y6600D02*
X11200D01*
X12800Y7400D02*
Y6600D01*
Y7600D02*
X11200D01*
X12800Y8400D02*
Y7600D01*
X13200Y13600D02*
X14800D01*
X13200Y14400D02*
Y13600D01*
X13658Y13856D02*
X13730Y13799D01*
X13658Y13856*
Y13970D02*
Y13856D01*
Y13970*
X13730Y13799D02*
X13872D01*
X13730*
Y14028D02*
X13658Y13970D01*
X13730Y14028*
Y14199D02*
X13658Y14142D01*
X13730Y14199*
X13750Y8650D02*
G02X14000Y8900I250D01*
X14250Y8650J250*
G01X13761Y10660D02*
X13832Y10570D01*
X13761Y10660*
Y10838D02*
Y10660D01*
Y10838*
Y11393D02*
X14247D01*
X13761*
X13832Y10927D02*
X13761Y10838D01*
X13832Y10927*
X13833Y10570D02*
X14261D01*
X13833*
Y10927D02*
X14261D01*
X13833*
X13872Y13799D02*
X13944Y13856D01*
X13872Y13799*
Y14028D02*
X13730D01*
X13872*
Y14199D02*
X13730D01*
X13872*
X13929Y11071D02*
Y11428D01*
Y11071*
X13944Y13856D02*
Y14142D01*
Y13856*
Y13970D02*
X13872Y14028D01*
X13944Y13970*
Y14142D02*
X13872Y14199D01*
X13944Y14142*
X14058Y13856D02*
X14130Y13799D01*
X14058Y13856*
X14130Y13799D02*
X14272D01*
X14130*
Y14199D02*
X14058Y14142D01*
X14130Y14199*
X14247Y11393D02*
X13930Y11071D01*
X14247Y11393*
X14250Y8650D02*
X15500D01*
X14272Y13799D02*
X14344Y13856D01*
X14272Y13799*
Y14199D02*
X14130D01*
X14272*
X14344Y13856D02*
Y14142D01*
Y13856*
Y14142D02*
X14272Y14199D01*
X14344Y14142*
X14800Y13600D02*
Y14400D01*
X13200*
X15500Y8650D02*
Y13350D01*
X16200Y13600D02*
Y14400D01*
X17800*
X16200Y14600D02*
Y15400D01*
X17800*
X16200Y15600D02*
Y16400D01*
X17800*
X16458Y13856D02*
X16529Y13799D01*
X16458Y13856*
Y14142D02*
Y13856D01*
Y14142*
Y14856D02*
X16529Y14799D01*
X16458Y14856*
Y15028D02*
X16529Y14970D01*
X16458Y15028*
Y15142D02*
Y14856D01*
Y15142*
Y16085D02*
X16743Y15856D01*
X16458Y16085*
Y16142*
Y16085*
X16529Y13799D02*
X16671D01*
X16529*
Y14199D02*
X16458Y14142D01*
X16529Y14199*
Y14799D02*
X16671D01*
X16529*
Y14970D02*
X16671D01*
X16529*
Y15199D02*
X16458Y15142D01*
X16529Y15199*
Y16199D02*
X16458Y16142D01*
X16529Y16199*
X16671Y13799D02*
X16743Y13856D01*
X16671Y13799*
Y14199D02*
X16529D01*
X16671*
Y14799D02*
X16743Y14856D01*
X16671Y14799*
Y14970D02*
X16743Y15028D01*
X16671Y14970*
Y15199D02*
X16529D01*
X16671*
Y16199D02*
X16529D01*
X16671*
X16706Y13828D02*
X16493Y14170D01*
X16706Y13828*
X16743Y13856D02*
Y14142D01*
Y13856*
Y14142D02*
X16671Y14199D01*
X16743Y14142*
Y15028D02*
Y15142D01*
Y15028*
Y15142D02*
X16671Y15199D01*
X16743Y15142*
Y15799D02*
X16458D01*
X16743*
Y15856D02*
Y15799D01*
Y15856*
Y16142D02*
X16671Y16199D01*
X16743Y16142*
X16858Y14085D02*
X17144Y13856D01*
X16858Y14085*
Y14142*
Y14085*
X16930Y14199D02*
X16858Y14142D01*
X16930Y14199*
X17001Y14799D02*
Y15199D01*
Y14799*
Y15199D02*
X17086Y15085D01*
X17001Y15199*
Y15799D02*
Y16199D01*
Y15799*
Y16199D02*
X17086Y16085D01*
X17001Y16199*
X17072Y14199D02*
X16930D01*
X17072*
X17075Y7720D02*
Y12280D01*
Y11250D02*
G02X18000Y12175I925D01*
X18925Y11250J925*
G01X17075Y12280D02*
X18925D01*
Y7720*
X17075*
X17086Y14799D02*
X16915D01*
X17086*
Y15799D02*
X16915D01*
X17086*
X17144Y13799D02*
X16858D01*
X17144*
Y13856D02*
Y13799D01*
Y13856*
Y14142D02*
X17072Y14199D01*
X17144Y14142*
X17250Y11250D02*
G02X18000Y12000I750D01*
X18750Y11250J750*
G01X17250D02*
Y8750D01*
X17258Y14056D02*
X17330Y13999D01*
X17258Y14056*
Y14142D02*
Y14056D01*
Y14142*
X17330Y14199*
X17258Y14142*
Y15056D02*
X17330Y14999D01*
X17258Y15056*
Y15142D02*
Y15056D01*
Y15142*
X17330Y15199*
X17258Y15142*
Y16056D02*
X17330Y15999D01*
X17258Y16056*
Y16142D02*
Y16056D01*
Y16142*
X17330Y16199*
X17258Y16142*
X17330Y13999D02*
X17259Y13799D01*
X17330Y13999*
Y14999D02*
X17259Y14799D01*
X17330Y14999*
Y15999D02*
X17259Y15799D01*
X17330Y15999*
X17545Y13799D02*
Y14199D01*
Y13799*
Y13999D02*
X17330D01*
X17545*
Y14199D02*
X17330D01*
X17545*
Y14799D02*
Y15199D01*
Y14799*
Y14999D02*
X17330D01*
X17545*
Y15199D02*
X17330D01*
X17545*
Y15799D02*
Y16199D01*
Y15799*
Y15999D02*
X17330D01*
X17545*
Y16199D02*
X17330D01*
X17545*
X17800Y12280D02*
Y12150D01*
Y13600D02*
X16200D01*
X17800Y14400D02*
Y13600D01*
Y14600D02*
X16200D01*
X17800Y15400D02*
Y14600D01*
Y15600D02*
X16200D01*
X17800Y16400D02*
Y15600D01*
X17850Y7840D02*
Y7720D01*
X18200Y7850D02*
Y7720D01*
Y12280D02*
Y12150D01*
X18750Y8750D02*
G02X18000Y8000I750D01*
X17250Y8750J750*
G01X18750Y11250D02*
Y8750D01*
X18925D02*
G02X18000Y7825I925D01*
X17075Y8750J925*
G01X19239Y9750D02*
X19382Y9857D01*
X19239Y9750*
X19600Y8200D02*
X20400D01*
X19600Y9800D02*
Y8200D01*
Y10200D02*
X20400D01*
X19600Y11800D02*
Y10200D01*
X19739Y9750D02*
X19239D01*
X19739*
Y9857D02*
Y9643D01*
Y9857*
Y10073D02*
X19239Y10430D01*
X19739Y10073*
Y10430D02*
X19239Y10073D01*
X19739Y10430*
X19791Y8729D02*
Y8871D01*
Y8729*
Y8871D02*
X19848Y8943D01*
X19791Y8871*
Y9129D02*
X19848Y9058D01*
X19791Y9129*
Y9271D02*
Y9129D01*
Y9271*
X19809Y10728D02*
X19866Y10656D01*
X19809Y10728*
Y10870D02*
Y10728D01*
Y10870*
Y11128D02*
Y11270D01*
Y11128*
Y11270D02*
X19866Y11342D01*
X19809Y11270*
X19848Y8658D02*
X19791Y8729D01*
X19848Y8658*
Y9343D02*
X19791Y9271D01*
X19848Y9343*
X19849Y8658D02*
X19934D01*
X19849*
X19866Y10656D02*
X20151D01*
X19866*
Y10942D02*
X19809Y10870D01*
X19866Y10942*
Y11056D02*
X19809Y11128D01*
X19866Y11056*
Y11342D02*
X20008D01*
X19866*
X19934Y8658D02*
X19991Y8728D01*
X19934Y8658*
X19991Y8728D02*
X20048Y8658D01*
X19991Y8728*
Y8801*
Y8728*
X20008Y11056D02*
X20066Y11128D01*
X20008Y11056*
Y11342D02*
X20066Y11270D01*
X20008Y11342*
X20048Y8658D02*
X20134D01*
X20048*
X20066Y11128D02*
Y11270D01*
Y11128*
X20134Y8658D02*
X20191Y8729D01*
X20134Y8658*
Y9058D02*
X20191Y9129D01*
X20134Y9058*
Y9343D02*
X19849D01*
X20134*
X20152Y10656D02*
X20209Y10728D01*
X20152Y10656*
X20191Y8729D02*
Y8871D01*
Y8729*
Y8871D02*
X20134Y8943D01*
X20191Y8871*
Y9129D02*
Y9271D01*
Y9129*
Y9271D02*
X20134Y9343D01*
X20191Y9271*
X20209Y10728D02*
Y10870D01*
Y10728*
Y10870D02*
X20152Y10942D01*
X20209Y10870*
Y11056D02*
X20008D01*
X20209*
Y11342*
Y11056*
X20400Y8200D02*
Y9800D01*
X19600*
X20400Y10200D02*
Y11800D01*
X19600*
X20600Y12200D02*
Y13800D01*
X21400*
X20809Y12455D02*
X21209D01*
X20809*
Y12914D02*
Y13085D01*
Y12914*
Y12999D02*
X21209D01*
X20809*
Y13314D02*
Y13486D01*
Y13314*
Y13400D02*
X21209D01*
X20809*
X21009Y12455D02*
Y12670D01*
Y12455*
Y12670D02*
X20809Y12741D01*
X21009Y12670*
X21066Y12742D02*
X21009Y12670D01*
X21066Y12742*
X21151D02*
X21066D01*
X21151*
X21152D02*
X21209Y12670D01*
X21152Y12742*
X21209Y12455D02*
Y12670D01*
Y12455*
Y12999D02*
X21094Y12914D01*
X21209Y12999*
Y13400D02*
X21094Y13314D01*
X21209Y13400*
X21250Y5650D02*
Y6350D01*
Y8100D02*
Y9900D01*
X21400Y12200D02*
X20600D01*
X21400Y13800D02*
Y12200D01*
X21500Y5650D02*
Y6350D01*
X21750Y4749D02*
Y5249D01*
Y4749*
Y5249D02*
X21857Y5106D01*
X21750Y5249*
Y8749D02*
Y9249D01*
Y8749*
Y9249D02*
X21857Y9106D01*
X21750Y9249*
X21857Y4749D02*
X21643D01*
X21857*
Y8749D02*
X21643D01*
X21857*
X22073Y4820D02*
X22162Y4749D01*
X22073Y4820*
Y4821D02*
Y5178D01*
Y4821*
Y8820D02*
X22162Y8749D01*
X22073Y8820*
Y8821D02*
Y9249D01*
Y8821*
X22162Y4749D02*
X22430D01*
X22162*
Y5249D02*
X22073Y5177D01*
X22162Y5249*
Y8749D02*
X22340D01*
X22162*
X22250Y5650D02*
Y6350D01*
Y8100D02*
X22750Y8500D01*
X22340Y8749D02*
X22430Y8820D01*
X22340Y8749*
X22350Y5650D02*
Y6350D01*
X22430Y4749D02*
Y5249D01*
Y4749*
Y5249D02*
X22162D01*
X22430*
Y8821D02*
Y9249D01*
Y8821*
X22500Y5650D02*
Y6350D01*
X22750Y5650D02*
X21250D01*
X22750D02*
Y6350D01*
X21250*
X22750Y8100D02*
Y9900D01*
Y8100D02*
X21250D01*
X22750Y9900D02*
X21250D01*
G54D11*
X2000Y18000D03*
M02*
