*
G04 Job   : F:\FRHA\RemoteDimmer\PCB\RemoteDimmerPic\PCB\REMOTEDIMMERPIC.PCB*
G04 User  : PC-FRHA:frha*
G04 Layer : TopPlace.gdo*
G04 Date  : Wed May 09 14:36:27 2001*
%ICAS*%
%MOIN*%
%FSLAX24Y24*%
%OFA0.0000B0.0000*%
G90*
%ADD11C,0.0050*%
%ADD10C,0.0080*%
G01*
G54D10*
X30250D01*
Y20500*
X0*
Y0*
X500Y16000D02*
Y20000D01*
X2500Y2500D02*
X9500D01*
X2500D02*
Y3500D01*
X9500*
X2500Y8500D02*
Y9500D01*
Y8500D02*
X9500D01*
X2500Y9500D02*
X9500D01*
X3500Y16000D02*
Y20000D01*
X4489Y18161D02*
X4560Y18071D01*
X4489Y18161*
Y18339D02*
Y18161D01*
Y18339*
X4560Y18428D02*
X4489Y18339D01*
X4560Y18428*
X4561D02*
X4668D01*
X4561*
X4668D02*
X4739Y18340D01*
X4668Y18428*
X4739Y18340D02*
X4811Y18428D01*
X4739Y18340*
Y18248*
Y18340*
X4811Y18428D02*
X4918D01*
X4811*
X4917Y17570D02*
X4489D01*
X4917*
Y17927D02*
X4489D01*
X4917*
X4918D02*
X4989Y17838D01*
X4918Y17927*
Y18428D02*
X4989Y18339D01*
X4918Y18428*
X4989Y17660D02*
X4918Y17570D01*
X4989Y17660*
Y17838D02*
Y17660D01*
Y17838*
Y18161D02*
X4918Y18071D01*
X4989Y18161*
Y18339D02*
Y18161D01*
Y18339*
X5570Y2749D02*
Y3249D01*
Y2749*
Y2999D02*
X5838D01*
X5570*
Y3249D02*
X5838D01*
X5570*
Y8749D02*
Y9249D01*
Y8749*
Y8999D02*
X5838D01*
X5570*
Y9249D02*
X5838D01*
X5570*
X5928Y3070D02*
X5838Y2999D01*
X5928Y3070*
Y3177D02*
Y3070D01*
Y3177*
Y3178D02*
X5838Y3249D01*
X5928Y3178*
Y9070D02*
X5838Y8999D01*
X5928Y9070*
Y9177D02*
Y9070D01*
Y9177*
Y9178D02*
X5838Y9249D01*
X5928Y9178*
X6071Y2749D02*
X6428D01*
X6071*
Y2820D02*
Y2749D01*
Y2820*
Y3178D02*
X6161Y3249D01*
X6071Y3178*
X6161Y3249D02*
X6339D01*
X6161*
Y8749D02*
X6071Y8820D01*
X6161Y8749*
Y9249D02*
X6071Y9178D01*
X6161Y9249*
X6339Y3249D02*
X6428Y3178D01*
X6339Y3249*
Y8749D02*
X6161D01*
X6339*
Y9249D02*
X6161D01*
X6339*
X6340Y8999D02*
X6428Y8927D01*
X6340Y8999*
X6248*
X6340*
X6428Y3106D02*
X6071Y2820D01*
X6428Y3106*
Y3177*
Y3106*
Y8820D02*
X6339Y8749D01*
X6428Y8820*
Y8927D02*
Y8820D01*
Y8927*
Y9070D02*
X6340Y8999D01*
X6428Y9070*
Y9177D02*
Y9070D01*
Y9177*
Y9178D02*
X6339Y9249D01*
X6428Y9178*
X6750Y13750D02*
X7250D01*
X7000Y13500D02*
Y14000D01*
X7500Y16000D02*
X500D01*
X7500D02*
Y20000D01*
Y16500D02*
X7000Y16000D01*
X7500Y20000D02*
X500D01*
X7570Y12820D02*
Y13177D01*
Y12820*
Y13178D02*
X7660Y13249D01*
X7570Y13178*
X7660Y12749D02*
X7570Y12820D01*
X7660Y12749*
Y13249D02*
X7838D01*
X7660*
X7838Y12749D02*
X7660D01*
X7838*
Y13249D02*
X7927Y13178D01*
X7838Y13249*
X7927Y12820D02*
X7838Y12749D01*
X7927Y12820*
X8106Y12802D02*
X8160Y12749D01*
X8106Y12802*
Y12963D02*
Y12802D01*
Y12963*
Y13070D02*
Y13195D01*
Y13070*
Y13195D02*
X8160Y13249D01*
X8106Y13195*
X8124Y13017D02*
X8106Y13070D01*
X8124Y13017*
X8106Y12963*
X8124Y13017*
X8160Y12749D02*
X8356D01*
X8160*
Y13249D02*
X8356D01*
X8160*
X8356Y12749D02*
X8410Y12802D01*
X8356Y12749*
Y13249D02*
X8410Y13195D01*
X8356Y13249*
X8392Y13017D02*
X8124D01*
X8392*
X8410Y12802D02*
Y12963D01*
Y12802*
Y12963D02*
X8392Y13017D01*
X8410Y12963*
Y13070D02*
X8392Y13017D01*
X8410Y13070*
Y13195D02*
Y13070D01*
Y13195*
X8500Y2500D02*
Y3500D01*
Y8500D02*
Y9500D01*
X9000Y17000D02*
X7500D01*
X9000Y18000D02*
X7500D01*
X9000Y19000D02*
X7500D01*
X9498Y11249D02*
Y11749D01*
Y11249*
X9500Y2500D02*
Y3500D01*
Y8500D02*
Y9500D01*
X9676Y11749D02*
X9319D01*
X9676*
X9820Y11249D02*
Y11749D01*
Y11249*
Y11499D02*
X10088D01*
X9820*
Y11749D02*
X10088D01*
X9820*
X10000Y13000D02*
G03X8000Y15000I2000D01*
X6000Y13000J2000*
X8000Y11000I2000*
X10000Y13000J2000*
G01X10178Y11570D02*
X10088Y11499D01*
X10178Y11570*
Y11677D02*
Y11570D01*
Y11677*
Y11678D02*
X10088Y11749D01*
X10178Y11678*
X10393Y11249D02*
X10607D01*
X10393*
X10498Y15749D02*
Y16249D01*
Y15749*
X10500Y11249D02*
Y11749D01*
Y11249*
Y11749D02*
X10393Y11606D01*
X10500Y11749*
X10676Y16249D02*
X10319D01*
X10676*
X10820Y15749D02*
Y16249D01*
Y15749*
Y15999D02*
X11088D01*
X10820*
Y16249D02*
X11088D01*
X10820*
X11178Y16070D02*
X11088Y15999D01*
X11178Y16070*
Y16177D02*
Y16070D01*
Y16177*
Y16178D02*
X11088Y16249D01*
X11178Y16178*
X11321Y15917D02*
X11678D01*
X11321*
X11643Y15749D02*
Y16234D01*
Y15749*
Y16235D02*
X11321Y15918D01*
X11643Y16235*
X12500Y1000D02*
Y3000D01*
Y1000D02*
X15500D01*
X12500Y3000D02*
X15500D01*
X12500Y17000D02*
Y15000D01*
X12750D02*
X12500Y15250D01*
X13000Y4000D02*
Y8000D01*
Y7750D02*
X13250Y8000D01*
X13570Y1749D02*
Y2249D01*
Y1749*
Y1999D02*
X13838D01*
X13570*
Y2249D02*
X13838D01*
X13570*
Y15749D02*
Y16249D01*
Y15749*
Y15999D02*
X13838D01*
X13570*
Y16249D02*
X13838D01*
X13570*
X13739Y5570D02*
Y5838D01*
Y5570*
Y6161D02*
Y6339D01*
Y6161*
Y6339D02*
X13810Y6428D01*
X13739Y6339*
X13810Y5928D02*
X13739Y5838D01*
X13810Y5928*
Y6071D02*
X13739Y6161D01*
X13810Y6071*
X13811Y5928D02*
X13918D01*
X13811*
X13918D02*
X13989Y5838D01*
X13918Y5928*
X13928Y2070D02*
X13838Y1999D01*
X13928Y2070*
Y2177D02*
Y2070D01*
Y2177*
Y2178D02*
X13838Y2249D01*
X13928Y2178*
Y16070D02*
X13838Y15999D01*
X13928Y16070*
Y16177D02*
Y16070D01*
Y16177*
Y16178D02*
X13838Y16249D01*
X13928Y16178*
X13953Y6161D02*
Y6339D01*
Y6161*
Y6339D02*
X14025Y6428D01*
X13953Y6339*
X13989Y5570D02*
Y5838D01*
Y5570*
X14025Y6071D02*
X13953Y6161D01*
X14025Y6071*
Y6428D02*
X14168D01*
X14025*
X14071Y1820D02*
X14161Y1749D01*
X14071Y1820*
Y1998D02*
X14161Y2070D01*
X14071Y1998*
Y2249D02*
Y1998D01*
Y2249*
X14428*
X14071*
X14143Y15749D02*
X14357D01*
X14143*
X14161Y1749D02*
X14339D01*
X14161*
Y2070D02*
X14339D01*
X14161*
X14168Y6071D02*
X13811D01*
X14168*
Y6428D02*
X14239Y6339D01*
X14168Y6428*
X14239Y5570D02*
X13739D01*
X14239*
Y6161D02*
X14168Y6071D01*
X14239Y6161*
Y6339D02*
Y6161D01*
Y6339*
X14250Y15749D02*
Y16249D01*
Y15749*
Y16249D02*
X14143Y16106D01*
X14250Y16249*
X14339Y1749D02*
X14428Y1820D01*
X14339Y1749*
X14428Y1820D02*
Y1998D01*
Y1820*
Y1998D02*
X14339Y2070D01*
X14428Y1998*
X15000Y4000D02*
Y8000D01*
Y4000D02*
X13000D01*
X15000Y8000D02*
X13000D01*
X15250Y3000D02*
X15500Y2750D01*
Y1000D02*
Y3000D01*
Y15000D02*
X12500D01*
X15500Y17000D02*
X12500D01*
X15500D02*
Y15000D01*
X16500Y2700D02*
X17500D01*
X16500Y5350D02*
X17500D01*
X16500D02*
Y2700D01*
X16739Y3319D02*
Y3587D01*
Y3319*
Y3999D02*
X16882Y3892D01*
X16739Y3999*
Y4321D02*
Y4678D01*
Y4321*
X16990*
X16739*
X16810Y3677D02*
X16739Y3587D01*
X16810Y3677*
X16811D02*
X16918D01*
X16811*
X16918D02*
X16989Y3587D01*
X16918Y3677*
Y4411D02*
Y4589D01*
Y4411*
X16989Y3319D02*
Y3587D01*
Y3319*
Y3587D02*
X17239Y3676D01*
X16989Y3587*
X16990Y4321D02*
X16918Y4411D01*
X16990Y4321*
Y4678D02*
X16918Y4589D01*
X16990Y4678*
X17000Y2700D02*
Y1500D01*
Y6500D02*
Y5350D01*
X17168Y4321D02*
X17239Y4411D01*
X17168Y4321*
Y4678D02*
X16990D01*
X17168*
X17239Y3319D02*
X16739D01*
X17239*
Y3892D02*
Y4106D01*
Y3892*
Y3999D02*
X16739D01*
X17239*
Y4411D02*
Y4589D01*
Y4411*
Y4589D02*
X17168Y4678D01*
X17239Y4589*
X17498Y12999D02*
Y13499D01*
Y12999*
Y15499D02*
Y15999D01*
Y15499*
X17500Y2700D02*
X18500D01*
X17500Y5350D02*
X18500D01*
X17500D02*
Y2700D01*
Y5350D02*
Y2700D01*
X17676Y13499D02*
X17319D01*
X17676*
Y15999D02*
X17319D01*
X17676*
X17739Y3319D02*
Y3587D01*
Y3319*
Y3999D02*
X17882Y3892D01*
X17739Y3999*
X17753Y4643D02*
X18070Y4321D01*
X17753Y4643*
X17810Y3677D02*
X17739Y3587D01*
X17810Y3677*
X17811D02*
X17918D01*
X17811*
X17820Y12999D02*
Y13499D01*
Y12999*
Y13249D02*
X18088D01*
X17820*
Y13499D02*
X18088D01*
X17820*
Y15499D02*
Y15999D01*
Y15499*
Y15749D02*
X18088D01*
X17820*
Y15999D02*
X18088D01*
X17820*
X17918Y3677D02*
X17989Y3587D01*
X17918Y3677*
X17989Y3319D02*
Y3587D01*
Y3319*
Y3587D02*
X18239Y3676D01*
X17989Y3587*
X18000Y2700D02*
Y1500D01*
Y6500D02*
Y5350D01*
X18071Y4321D02*
Y4678D01*
Y4321*
X18178Y13320D02*
X18088Y13249D01*
X18178Y13320*
Y13427D02*
Y13320D01*
Y13427*
Y13428D02*
X18088Y13499D01*
X18178Y13428*
Y15820D02*
X18088Y15749D01*
X18178Y15820*
Y15927D02*
Y15820D01*
Y15927*
Y15928D02*
X18088Y15999D01*
X18178Y15928*
X18239Y3319D02*
X17739D01*
X18239*
Y3892D02*
Y4106D01*
Y3892*
Y3999D02*
X17739D01*
X18239*
Y4643D02*
X17753D01*
X18239*
X18321Y15499D02*
X18678D01*
X18321*
Y15570D02*
Y15499D01*
Y15570*
Y15928D02*
X18411Y15999D01*
X18321Y15928*
X18411Y12999D02*
X18321Y13070D01*
X18411Y12999*
Y13499D02*
X18321Y13428D01*
X18411Y13499*
Y15999D02*
X18589D01*
X18411*
X18500Y5350D02*
Y2700D01*
X18589Y12999D02*
X18411D01*
X18589*
Y13499D02*
X18411D01*
X18589*
Y15999D02*
X18678Y15928D01*
X18589Y15999*
X18590Y13249D02*
X18678Y13177D01*
X18590Y13249*
X18498*
X18590*
X18678Y13070D02*
X18589Y12999D01*
X18678Y13070*
Y13177D02*
Y13070D01*
Y13177*
Y13320D02*
X18590Y13249D01*
X18678Y13320*
Y13427D02*
Y13320D01*
Y13427*
Y13428D02*
X18589Y13499D01*
X18678Y13428*
Y15856D02*
X18321Y15570D01*
X18678Y15856*
Y15927*
Y15856*
X18783Y933D02*
Y5067D01*
Y933D02*
X29216D01*
X18783Y5067D02*
X29216D01*
X19250Y6000D02*
X23000D01*
X19250D02*
Y12000D01*
X23000*
X19750Y6500D02*
X28250D01*
X19750Y11500D02*
Y6500D01*
X21000Y14500D02*
X23000D01*
X21000D02*
Y17500D01*
X21500*
G03X22000Y17000I500*
X22500Y17500J500*
G01X21739Y16071D02*
X21990D01*
X21739*
Y16428*
Y16071*
X21918Y16161D02*
Y16339D01*
Y16161*
X21950Y12250D02*
X26050D01*
X21950D02*
Y14250D01*
Y13750D02*
X26050D01*
X21950Y14250D02*
X26050D01*
X21990Y16071D02*
X21918Y16161D01*
X21990Y16071*
Y16428D02*
X21918Y16339D01*
X21990Y16428*
X22167Y15570D02*
X21739D01*
X22167*
Y15927D02*
X21739D01*
X22167*
X22168D02*
X22239Y15838D01*
X22168Y15927*
Y16071D02*
X22239Y16161D01*
X22168Y16071*
Y16428D02*
X21990D01*
X22168*
X22239Y15660D02*
X22168Y15570D01*
X22239Y15660*
Y15838D02*
Y15660D01*
Y15838*
Y16161D02*
Y16339D01*
Y16161*
Y16339D02*
X22168Y16428D01*
X22239Y16339*
X22500Y17500D02*
X23000D01*
Y6000D02*
Y6500D01*
Y12000D02*
Y11500D01*
Y14500D02*
Y17500D01*
X23570Y2820D02*
Y3177D01*
Y2820*
Y3178D02*
X23660Y3249D01*
X23570Y3178*
Y8749D02*
Y9249D01*
Y8749*
Y13070D02*
X23660Y12999D01*
X23570Y13070*
Y13427D02*
Y13070D01*
Y13427*
X23660Y2749D02*
X23570Y2820D01*
X23660Y2749*
Y3249D02*
X23838D01*
X23660*
Y12999D02*
X23838D01*
X23660*
Y13499D02*
X23570Y13427D01*
X23660Y13499*
X23838Y2749D02*
X23660D01*
X23838*
Y3249D02*
X23927Y3178D01*
X23838Y3249*
Y12999D02*
X23927Y13070D01*
X23838Y12999*
Y13499D02*
X23660D01*
X23838*
X23927Y2820D02*
X23838Y2749D01*
X23927Y2820*
Y8749D02*
X23570D01*
X23927*
Y12999D02*
X23822Y13126D01*
X23927Y12999*
Y13427D02*
Y13070D01*
Y13427*
X23838Y13499*
X23927Y13427*
X24142Y2749D02*
X24356D01*
X24142*
X24143Y8749D02*
X24357D01*
X24143*
Y12999D02*
X24357D01*
X24143*
X24249Y2749D02*
Y3249D01*
Y2749*
Y3249D02*
X24142Y3106D01*
X24249Y3249*
X24250Y8749D02*
Y9249D01*
Y8749*
Y9249D02*
X24143Y9106D01*
X24250Y9249*
Y12999D02*
Y13499D01*
Y12999*
Y13499D02*
X24143Y13356D01*
X24250Y13499*
X24500Y15650D02*
Y18300D01*
X24739Y16319D02*
Y16587D01*
Y16319*
Y16999D02*
X24882Y16892D01*
X24739Y16999*
Y17411D02*
X24810Y17321D01*
X24739Y17411*
Y17589D02*
Y17411D01*
Y17589*
X24810Y16677D02*
X24739Y16587D01*
X24810Y16677*
Y17678D02*
X24739Y17589D01*
X24810Y17678*
X24811Y16677D02*
X24918D01*
X24811*
Y17678D02*
X24918D01*
X24811*
X24918Y16677D02*
X24989Y16587D01*
X24918Y16677*
Y17678D02*
X24989Y17590D01*
X24918Y17678*
X24989Y16319D02*
Y16587D01*
Y16319*
Y16587D02*
X25239Y16676D01*
X24989Y16587*
Y17590D02*
X25061Y17678D01*
X24989Y17590*
Y17498*
Y17590*
X25000Y14500D02*
Y15650D01*
Y18300D02*
Y19500D01*
X25061Y17678D02*
X25168D01*
X25061*
X25168D02*
X25239Y17589D01*
X25168Y17678*
X25239Y16319D02*
X24739D01*
X25239*
Y16892D02*
Y17106D01*
Y16892*
Y16999D02*
X24739D01*
X25239*
Y17411D02*
X25168Y17321D01*
X25239Y17411*
Y17589D02*
Y17411D01*
Y17589*
X25250Y6000D02*
Y6500D01*
Y11500D02*
Y12000D01*
X28750*
X25500Y15650D02*
X24500D01*
X25500D02*
Y18300D01*
X24500*
X26050Y12250D02*
Y14250D01*
X27000Y13500D02*
Y16500D01*
Y16250D02*
X27250Y16500D01*
X27739Y14570D02*
Y14838D01*
Y14570*
X27753Y15393D02*
X28070Y15071D01*
X27753Y15393*
X27810Y14928D02*
X27739Y14838D01*
X27810Y14928*
X27811D02*
X27918D01*
X27811*
X27918D02*
X27989Y14838D01*
X27918Y14928*
X27989Y14570D02*
Y14838D01*
Y14570*
X28071Y15071D02*
Y15428D01*
Y15071*
X28239Y14570D02*
X27739D01*
X28239*
Y15393D02*
X27753D01*
X28239*
X28250Y6500D02*
Y11500D01*
X19750*
X28750Y6000D02*
X25250D01*
X28750Y12000D02*
Y6000D01*
X29000Y13500D02*
Y16500D01*
Y13500D02*
X27000D01*
X29000Y16500D02*
X27000D01*
X29216Y933D02*
Y5067D01*
G54D11*
X500Y16000D02*
X9000D01*
Y20000*
X500*
Y16000*
X2500Y2500D02*
X9500D01*
Y3500*
X2500*
Y2500*
Y8500D02*
X9500D01*
Y9500*
X2500*
Y8500*
X6000Y11000D02*
X10000D01*
Y15000*
X6000*
Y11000*
X9685Y10685D02*
X10315D01*
Y11315*
X9685*
Y10685*
X10330Y11000D02*
G03X10000Y11330I330D01*
X9670Y11000J330*
X10000Y10670I330*
X10330Y11000J330*
G01X10685Y14685D02*
X11315D01*
Y15315*
X10685*
Y14685*
X11330Y15000D02*
G03X11000Y15330I330D01*
X10670Y15000J330*
X11000Y14670I330*
X11330Y15000J330*
G01X12500Y1000D02*
X15500D01*
Y3000*
X12500*
Y1000*
Y15000D02*
X15500D01*
Y17000*
X12500*
Y15000*
X13000Y4000D02*
X15000D01*
Y8000*
X13000*
Y4000*
X16500Y1500D02*
X17500D01*
Y6500*
X16500*
Y1500*
X17500D02*
X18500D01*
Y6500*
X17500*
Y1500*
X17685Y13685D02*
X18315D01*
Y14315*
X17685*
Y13685*
Y14685D02*
X18315D01*
Y15315*
X17685*
Y14685*
X18330Y14000D02*
G03X18000Y14330I330D01*
X17670Y14000J330*
X18000Y13670I330*
X18330Y14000J330*
G01Y15000D02*
G03X18000Y15330I330D01*
X17670Y15000J330*
X18000Y14670I330*
X18330Y15000J330*
G01X18783Y933D02*
X29216D01*
Y5067*
X18783*
Y933*
X19250Y6000D02*
X28750D01*
Y12000*
X19250*
Y6000*
X20500Y14500D02*
X23500D01*
Y17500*
X20500*
Y14500*
X21950Y12250D02*
X26050D01*
Y14250*
X21950*
Y12250*
X24500Y14500D02*
X25500D01*
Y19500*
X24500*
Y14500*
X27000Y13500D02*
X29000D01*
Y16500*
X27000*
Y13500*
M02*
